<svg xmlns="http://www.w3.org/2000/svg" width="1536" height="1024"><path fill="#fe822f" d="M786 248v2l3.11.353c3.724.62 6.662 1.562 10.136 3.006l1.864.765q2.06.848 4.116 1.704c4.028 1.679 8.068 3.329 12.106 4.984l2.83 1.164c9.1 3.736 18.223 7.414 27.35 11.087l2.355.947q7.186 2.891 14.373 5.781a52472 52472 0 0 1 22.896 9.213 7501 7501 0 0 1 32.939 13.36 3089 3089 0 0 0 24.55 9.886l3.79 1.518c5.293 2.122 10.587 4.24 15.905 6.298 20.9 8.174 20.9 8.174 25.68 17.934 2.312 7.17 2.27 13.995 2.227 21.484v4.053c.002 3.646-.01 7.292-.024 10.938-.013 3.819-.014 7.637-.016 11.455-.006 7.221-.023 14.443-.043 21.664-.022 8.224-.033 16.45-.043 24.674Q992.068 457.634 992 483c-20.298-7.446-20.298-7.446-28.898-10.805l-5.131-1.991-2.636-1.026c-21.237-8.255-42.54-16.332-63.862-24.362A7568 7568 0 0 1 870 436.688c-9.488-3.606-18.983-7.191-28.48-10.77l-3.644-1.373q-9.165-3.454-18.331-6.906-3.388-1.276-6.775-2.553l-3.203-1.204-2.935-1.107-2.575-.97C802 411 802 411 800 410l-1 2v-3l-2.195-.586-2.93-.789-2.883-.773C788 406 788 406 785.392 404.74c-4.94-1.078-8.118.612-12.658 2.565l-2.65 1.084a911 911 0 0 0-8.334 3.486q-4.185 1.739-8.377 3.464-2.604 1.077-5.202 2.17l-2.367.99-2.085.88C742 420 742 420 740 420v2l2.05.335c3.517.793 6.804 2.008 10.16 3.298l2.144.812q3.512 1.336 7.021 2.68l4.992 1.9a9310 9310 0 0 1 37.054 14.22c14.978 5.775 29.99 11.46 45.01 17.124 14.532 5.48 29.053 10.986 43.569 16.506l3.23 1.228 12.423 4.724q10.332 3.929 20.668 7.849 3.417 1.296 6.833 2.596a1628 1628 0 0 0 15.675 5.882q3.974 1.468 7.945 2.95c1.836.68 3.676 1.35 5.516 2.019 10.26 3.826 20.247 7.836 25.71 17.877 2.154 5.214 2.31 9.86 2.335 15.407l.035 2.817c.036 3.067.058 6.134.08 9.202q.03 3.222.065 6.443.067 6.76.118 13.52c.043 5.731.1 11.462.162 17.193q.068 6.662.126 13.325.028 3.165.06 6.33c.398 39.738.398 39.738-7.572 48.515-5.72 5.258-11.976 8.143-19.096 11.123l-3.377 1.469c-8.21 3.522-8.21 3.522-11.728 4.172L949 674l-1 2c-1.7.623-1.7.623-4.023 1.219-7.743 2.199-15.138 5.297-22.602 8.281l-4.958 1.97q-5.35 2.125-10.698 4.255c-9.072 3.611-18.152 7.2-27.231 10.793l-9.338 3.697a8670 8670 0 0 1-35.49 13.98q-8.833 3.46-17.625 7.028l-4.091 1.654a1684 1684 0 0 0-7.74 3.154c-35.911 14.535-64.936 4.692-99.111-9.164a3965 3965 0 0 0-18.847-7.566l-3.14-1.254-6.418-2.562c-13.2-5.27-26.4-10.544-39.567-15.895l-2.546-1.035a5935 5935 0 0 1-11.554-4.71 744 744 0 0 0-22.143-8.636c-54.828-20.427-54.828-20.427-61.047-33.053-2.64-6.256-2.403-12.517-2.377-19.213q-.014-2.1-.031-4.2c-.028-3.777-.031-7.553-.03-11.33-.004-3.955-.03-7.911-.052-11.867-.041-7.48-.061-14.959-.074-22.438-.016-8.52-.055-17.04-.095-25.56-.082-17.516-.136-35.032-.172-52.548 3.058.593 5.925 1.237 8.843 2.332l2.184.813 2.332.882 2.466.923q3.964 1.49 7.925 2.988l5.465 2.056c10.889 4.107 21.742 8.288 32.518 12.683 11.906 4.852 23.998 9.226 36.052 13.69a4940 4940 0 0 1 63.332 23.956l2.93 1.129q2.717 1.047 5.432 2.099l2.435.937 2.11.816c2.64.93 5.303 1.553 8.038 2.134C721 569 721 569 724 571c7.779 5.027 16.276 9.93 25.778 8.386 10.954-2.925 21.143-8.331 31.222-13.386l-3.284-1.247c-18.615-7.068-37.228-14.142-55.779-21.378a13834 13834 0 0 0-50.972-19.749 54862 54862 0 0 0-46.715-18.001l-2.419-.93a4142 4142 0 0 0-23.438-8.954 1803 1803 0 0 1-26.122-10.13 1344 1344 0 0 0-3.977-1.565c-20.529-8.051-20.529-8.051-25.231-14.421l-1.653-2.148c-3.434-6.031-3.715-11.98-3.745-18.754l-.035-2.738c-.036-2.974-.058-5.948-.08-8.923l-.065-6.251q-.067-6.552-.118-13.103c-.043-5.56-.1-11.12-.162-16.68q-.068-6.46-.126-12.92-.028-3.072-.06-6.142c-.377-36.568-.377-36.568 8.56-47.982 6.776-6.777 17.416-10.982 26.421-13.984 17.996-6.85 35.797-14.173 53.572-21.573q8.052-3.352 16.115-6.677l2.791-1.16 2.534-1.043 2.202-.911C651 288 651 288 653 288l1-2c1.784-.738 1.784-.738 4.06-1.423 4.43-1.396 8.692-3.026 12.98-4.807l2.265-.933q2.41-.993 4.818-1.99 3.816-1.577 7.634-3.148Q693.881 270.353 702 267a19005 19005 0 0 1 19.101-7.872q3.83-1.579 7.657-3.162l4.691-1.93 2.148-.892c3.098-1.271 6.114-2.476 9.403-3.144l-1-2 3.938.063c3.233.005 6.354-.161 9.562-.563 9.51-1.144 18.983-.202 28.5.5"/><path fill="#f06421" d="M537 501c3.058.593 5.925 1.237 8.843 2.332l2.184.813 2.332.882 2.466.923q3.964 1.49 7.925 2.988l5.465 2.056c10.889 4.107 21.742 8.288 32.518 12.683 11.906 4.852 23.998 9.226 36.052 13.69a4940 4940 0 0 1 63.332 23.956l2.93 1.129q2.717 1.047 5.432 2.099l2.435.937 2.11.816c2.64.93 5.303 1.553 8.038 2.134C721 569 721 569 724 571c7.757 5.013 16.269 9.939 25.746 8.386 8.805-2.375 17.051-6.484 25.254-10.386 6.893-3.139 11.23-3.087 18.313-.488q2.525.973 5.042 1.96a2707.232 2707.232 0 0 1 8.72 3.379c5.335 2.076 10.677 4.134 16.019 6.192l3.303 1.274c9.376 3.61 18.786 7.125 28.211 10.605 23.611 8.72 47.098 17.756 70.575 26.83q6.628 2.563 13.261 5.11 4.263 1.637 8.523 3.279 2.714 1.044 5.427 2.083a613 613 0 0 1 17.126 6.893l3.409 1.433c4.519 2.133 9.759 4.825 12.071 9.45.04 2.333.043 4.667 0 7l2-1c-4.005 9.174-14.743 12.357-23.375 15.875l-3.598 1.508C951.312 674 951.312 674 949 674l-1 2c-1.7.623-1.7.623-4.023 1.219-7.743 2.199-15.138 5.297-22.602 8.281l-4.958 1.97q-5.35 2.125-10.698 4.255c-9.072 3.611-18.152 7.2-27.231 10.793l-9.338 3.697a8670 8670 0 0 1-35.49 13.98q-8.833 3.46-17.625 7.028l-4.091 1.654a1684 1684 0 0 0-7.74 3.154c-35.911 14.535-64.936 4.692-99.111-9.164a3965 3965 0 0 0-18.847-7.566l-3.14-1.254-6.418-2.562c-13.2-5.27-26.4-10.544-39.567-15.895l-2.546-1.035a5935 5935 0 0 1-11.554-4.71 744 744 0 0 0-22.143-8.636c-54.828-20.427-54.828-20.427-61.047-33.053-2.64-6.256-2.403-12.517-2.377-19.213q-.014-2.1-.031-4.2c-.028-3.777-.031-7.553-.03-11.33-.004-3.955-.03-7.911-.052-11.867-.041-7.48-.061-14.959-.074-22.438-.016-8.52-.055-17.04-.095-25.56-.082-17.516-.136-35.032-.172-52.548"/><path fill="#d7571c" d="M786 248v2l3.11.353c3.724.62 6.662 1.562 10.136 3.006l1.864.765q2.06.848 4.116 1.704c4.028 1.679 8.068 3.329 12.106 4.984l2.83 1.164c9.1 3.736 18.223 7.414 27.35 11.087l2.355.947q7.186 2.891 14.373 5.781a52472 52472 0 0 1 22.896 9.213 7501 7501 0 0 1 32.939 13.36 3089 3089 0 0 0 24.55 9.886l3.79 1.518c5.293 2.122 10.587 4.24 15.905 6.298 20.9 8.174 20.9 8.174 25.68 17.934 2.312 7.17 2.27 13.995 2.227 21.484v4.053c.002 3.646-.01 7.292-.024 10.938-.013 3.819-.014 7.637-.016 11.455-.006 7.221-.023 14.443-.043 21.664-.022 8.224-.033 16.45-.043 24.674Q992.068 457.634 992 483c-20.298-7.446-20.298-7.446-28.898-10.805l-5.131-1.991-2.636-1.026c-21.237-8.255-42.54-16.332-63.862-24.362A7568 7568 0 0 1 870 436.688c-9.488-3.606-18.983-7.191-28.48-10.77l-3.644-1.373q-9.165-3.454-18.331-6.906-3.388-1.276-6.775-2.553l-3.203-1.204-2.935-1.107-2.575-.97C802 411 802 411 800 410l-1 2v-3l-2.195-.586-2.93-.789-2.883-.773C788 406 788 406 785.392 404.74c-4.94-1.078-8.118.612-12.658 2.565l-2.65 1.084a911 911 0 0 0-8.334 3.486q-4.185 1.739-8.377 3.464-2.604 1.077-5.202 2.17l-2.367.99-2.085.88C742 420 742 420 740 420v2l4 1c-2 1-2 1-5.049-.01a386 386 0 0 1-3.982-1.611l-2.197-.88q-2.379-.954-4.754-1.917c-4.344-1.76-8.7-3.491-13.053-5.227-.91-.362-1.818-.725-2.755-1.1-9.346-3.723-18.74-7.313-28.148-10.88l-13.274-5.038c-14.641-5.554-29.267-11.15-43.894-16.74l-6.937-2.652-3.395-1.297a5998 5998 0 0 0-19.988-7.593c-24.142-9.13-24.142-9.13-34.261-13.555l-2.035-.88c-5.03-2.277-10.35-5.13-13.778-9.558-.723-2.981-.313-5.123.5-8.062 1.563-1.875 1.563-1.875 3-3l-1-2 3.36-1.645 4.39-2.168c.73-.356 1.46-.712 2.21-1.08 4.2-2.05 4.2-2.05 7.993-4.744 2.194-1.46 3.598-1.758 6.162-2.248 4.609-.981 8.768-2.488 13.1-4.318l2.308-.954c2.474-1.024 4.944-2.059 7.414-3.093q2.583-1.072 5.167-2.14a6614 6614 0 0 0 13.268-5.516 7641 7641 0 0 1 19.698-8.166q3.323-1.377 6.643-2.761l4.025-1.667 3.533-1.469C651 288 651 288 653 288l1-2c1.784-.738 1.784-.738 4.06-1.423 4.43-1.396 8.692-3.026 12.98-4.807l2.265-.933q2.41-.993 4.818-1.99 3.816-1.577 7.634-3.148Q693.881 270.353 702 267a19005 19005 0 0 1 19.101-7.872q3.83-1.579 7.657-3.162l4.691-1.93 2.148-.892c3.098-1.271 6.114-2.476 9.403-3.144l-1-2 3.938.063c3.233.005 6.354-.161 9.562-.563 9.51-1.144 18.983-.202 28.5.5"/><path fill="#fe832f" d="M786 248v2l3.11.353c3.724.62 6.662 1.562 10.136 3.006l1.864.765q2.06.848 4.116 1.704c4.028 1.679 8.068 3.329 12.106 4.984l2.83 1.164c9.1 3.736 18.223 7.414 27.35 11.087l2.355.947q7.186 2.891 14.373 5.781a52472 52472 0 0 1 22.896 9.213 7501 7501 0 0 1 32.939 13.36 3041 3041 0 0 0 24.55 9.886c16.595 6.623 16.595 6.623 24.563 9.875l2.031.821c2.83 1.163 5.22 2.347 7.781 4.054v2l-3.469-.16c-4.711.007-8.621 1.156-13.031 2.723l-2.363.812c-6.39 2.247-12.562 4.876-18.707 7.719-3.614 1.609-7.29 2.99-11 4.363-7.977 2.952-15.886 6.07-23.79 9.211l-1.984.788q-6.164 2.45-12.327 4.904a34930 34930 0 0 1-20.407 8.116 4623 4623 0 0 1-24.945 9.841c-9.766 3.82-19.506 7.686-29.196 11.695l-2.867 1.185q-5.68 2.35-11.351 4.717c-2.842 1.185-5.686 2.36-8.532 3.535l-2.588 1.089-2.394.984-2.086.869C786 402 786 402 782 402v-2h-3l-2-2c-2.603.32-2.603.32-5 1v2h-2l-.75-2.375c-1.016-2.733-1.016-2.733-3.312-3.937-1.752-.744-1.752-.744-2.938-.688l-2 1c-7.38-1.61-7.38-1.61-10-5v3c-6.75-1.625-6.75-1.625-9-5l-1-3h-6l-1-3c-2.763-.597-5.16-1-8-1-3.243-1.278-3.98-1.97-6-5l-2 1-5-5 2-1-1-2-5 1v-5h-6v-2h-2l-1 2v-4l-3 1c-2-6.75-2-6.75-2-9l-1.937-1.937C691 349 691 349 690 346l1-3-2.812-2.312c-4.644-3.886-4.644-3.886-6.188-5.688v-2h-3c-1.75-2.25-1.75-2.25-3-5l.625-2 .375-2-2.375-2c-3.935-4.498-3.523-9.202-3.625-15h-2l-1-4-.687-2.062C667 299 667 299 669 296v-3h3l-2-3c-.04-2-.043-4 0-6l-1-2 4-1v-2a18057 18057 0 0 1 31.527-13.044q7.953-3.286 15.91-6.562 2.623-1.08 5.245-2.164 3.706-1.53 7.416-3.054l2.244-.93c3.194-1.31 6.297-2.465 9.658-3.246l-1-2 3.938.063c3.233.005 6.354-.161 9.562-.563 9.51-1.144 18.983-.202 28.5.5"/><path fill="#dc5019" d="M618 532c4.626.733 8.878 2.325 13.242 3.965l2.487.925q4.075 1.52 8.146 3.048l5.694 2.125c16.888 6.314 33.726 12.764 50.546 19.259l2.931 1.13q2.718 1.046 5.433 2.099l2.435.937 2.11.816c2.64.93 5.303 1.553 8.038 2.134C721 569 721 569 724 571c7.757 5.013 16.269 9.939 25.746 8.386 8.805-2.375 17.051-6.484 25.254-10.386 6.893-3.139 11.23-3.087 18.313-.488q2.525.973 5.042 1.96l2.779 1.074q2.972 1.15 5.941 2.305c5.335 2.076 10.677 4.134 16.019 6.192l3.303 1.274c9.376 3.61 18.786 7.125 28.211 10.605 23.611 8.72 47.098 17.756 70.575 26.83q6.628 2.563 13.261 5.11 4.263 1.637 8.523 3.279 2.714 1.044 5.427 2.083a613 613 0 0 1 17.126 6.893l3.409 1.433c4.519 2.133 9.759 4.825 12.071 9.45.04 2.333.043 4.667 0 7l2-1c-4.005 9.174-14.743 12.357-23.375 15.875l-3.598 1.508C951.312 674 951.312 674 949 674l-1 2c-1.7.623-1.7.623-4.023 1.219-7.743 2.199-15.138 5.297-22.602 8.281l-4.958 1.97q-5.35 2.125-10.698 4.255c-9.072 3.611-18.152 7.2-27.231 10.793l-9.338 3.697a8185 8185 0 0 1-35.481 13.975 1397 1397 0 0 0-17.774 7.103l-6.196 2.513q-2.926 1.194-5.846 2.4l-3.591 1.458-3.158 1.295c-3.366 1.129-6.582 1.64-10.104 2.041 3.22-2.147 6.484-3.454 10.074-4.82l2.072-.799q3.27-1.257 6.542-2.506l4.439-1.707q5.434-2.09 10.873-4.168h-3l2-4v2h2l-.125-2.187c.134-3.02.877-5.082 2.125-7.813l2 2c1.108-1.883 1.108-1.883 2-4l-1-2a76 76 0 0 1 1-5h3l-.254-1.898-.308-2.477-.317-2.46C830 693 830 693 831 691l-2-1c-.687-2-.687-2-1-4l1-1-2-2v-2l-2-1 2-2h3l1 6 3-1 2 4 1.156 1.852c1.108 2.82.557 3.992-.531 6.773-1.248 3.106-1.248 3.106-1.625 6.375l3 1c.94-3.336 1.358-6.614 1.688-10.062l.324-3.16c.242-2.994.242-2.994-2.012-5.778h2v-2l-6-1 3-1 1-3 2-1c-1.952-1.952-3.532-2.848-6-4v-2l-2 2h-3l.563-1.812c.658-2.352.658-2.352-.563-5.188h-4l-1-3-2.437-.875C819 660 819 660 817.688 657.375L817 655h-2v-2l-3-1v-2l-2.875.625L806 651c-2.003-2.003-2.932-3.407-4-6v-4l-2.375.125C797 641 797 641 795 639l-3-1v-2l-3-1v-4l-2.875.063C783 631 783 631 781 630v-4h-2v-3h-2v-3l-2.312-.312c-3.027-.775-3.546-1.546-5.688-3.688l-3.625-1.312L762 613c-.937-3.187-.937-3.187-1-6l-10-1v-4l-3.312-.062C744 601 744 601 742.868 599.375c-.806-1.937-.806-1.937-1.868-5.375h-2v-2l4-1-1-3-2-1 4-4a239 239 0 0 0-19.344 6.45l-2.636.997a5131 5131 0 0 0-8.52 3.24l-6.032 2.29q-7.742 2.938-15.482 5.886l-8.519 3.241q-14.331 5.452-28.656 10.917-9.201 3.51-18.405 7.01l-13.202 5.024a5369 5369 0 0 0-29.161 11.18l-5.365 2.073a4589 4589 0 0 0-10.07 3.909c-21.158 8.21-21.158 8.21-28.045 8.22l-2.434.06C546 653 546 653 544.262 651.09c-2.595-4.298-2.26-7.208-1.262-12.09l4 2 3-5 4 1v-2h2v-2l3.75-1.25c3.617-1.337 5.606-2.918 8.25-5.75 2.25-.75 2.25-.75 4-1l2-7h3l1.75-1.812c3.48-3.383 7.382-5.188 12.25-5.188v-2h2l.813-1.937C595 605 595 605 598 604v-5l3-1c1.726-2.485 2.917-4.752 3.875-7.625C606 588 606 588 608.438 586.625c3.51-2.226 4.108-4.817 5.562-8.625l2-2 1.5-1.625C619 573 619 573 621 573l.188-3.562c.505-4.168 1.98-6.404 4.53-9.645 2.206-3.086 3.21-6.157 4.282-9.793-.37-2.18-.37-2.18-1-4l4-1 1-4 1 2 1-3-18-7z"/><path fill="#f76721" d="m828 458 2.813.563c3.2.678 3.2.678 6.187-.563 2.21.595 2.21.595 4.879 1.64l3.154 1.217 3.53 1.393q1.879.729 3.76 1.455 3.161 1.221 6.321 2.448c9.668 3.755 19.37 7.422 29.069 11.1q8.182 3.106 16.361 6.216 12.14 4.614 24.282 9.22 3.398 1.289 6.794 2.581a1629 1629 0 0 0 15.679 5.884q3.974 1.468 7.945 2.95c1.836.68 3.676 1.35 5.516 2.019 10.26 3.826 20.247 7.836 25.71 17.877 2.154 5.214 2.31 9.86 2.335 15.407l.035 2.817c.036 3.067.058 6.134.08 9.202q.03 3.222.065 6.443.067 6.76.118 13.52c.043 5.731.1 11.462.162 17.193q.068 6.662.126 13.325.028 3.165.06 6.33c.373 37.267.373 37.267-4.981 44.763-2.137 1.191-2.137 1.191-4 2l.313-3.687c-.04-3.215-.213-4.163-2.063-6.938-7.252-5.984-16.826-9.063-25.48-12.422l-3.023-1.177c-11.203-4.357-22.43-8.65-33.662-12.933l-10.548-4.027-3.499-1.335-6.891-2.634a951 951 0 0 0-17.108-6.367l-3.354-1.219a631 631 0 0 0-6.29-2.244l-2.821-1.027-2.468-.876c-2.495-1.32-3.568-2.778-5.106-5.114l-1-1-2 1c-2.5-.5-2.5-.5-5-2-1.375-3.5-1.375-3.5-2-7l1-2-2-1 1-3 5 2 .75-2.437L859 575a280 280 0 0 1 4-1c2.142-2.907 3-4.355 3-8h7l2-2 1 1-.937-1.75c-1.024-2.167-1.766-3.873-2.063-6.25.938-2.25.938-2.25 2-4h2c1.002-3.583 1.002-3.583 0-7h3l-.687-1.75L879 542l1.5-1.937c1.82-2 1.82-2 1.125-4.688L881 533l1-2-3-1v-6l-2-2 1-3a253 253 0 0 0-2-6v-4c-1.18-4.617-1.18-4.617-3-9l-1-3c-2.97.342-2.97.342-6 1l-1 2c-.625-1.875-.625-1.875-1-4l2-2c-.252-1.938-.252-1.938-1-4l-.613-2.07c-1.379-4.356-1.379-4.356-4.574-7.43L858 480l1 4h-2c-2.125-5.625-2.125-5.625-1-9-2.867.573-3.861.861-6 3v-9l-3-1v-2l-6-2v-2l-3.375.063C834 462 834 462 832 461v2l-4-1z"/><path fill="#fa7126" d="M785 249v1l-2.75-.032q-5.083-.05-10.165-.078-2.194-.015-4.388-.04a854 854 0 0 0-6.33-.045l-3.84-.032c-3.517.226-6.256.955-9.527 2.227l4 1v2l3-1 1 2-5 1 1 3c-1.634 1.708-2.87 2.935-5 4h2l1 2 3 1-2 1 1 3-3 1c.613 2.962 1.254 4.38 3 7h-3l2 3h3c2.188 1 2.188 1 4 2l-1 5h2l-1-3h2l1-4c3.727 2.71 4.225 6.705 5 11v2l2 1-2 3 4 1c-.375 1.938-.375 1.938-1 4l-2 1 2 1c1.75 2.75 1.75 2.75 3 6-.812 2.625-.812 2.625-2 5v4h2v-3l3 1c.745 2.1 1 3.774 1 6l1 2 3 1c1.688 1.563 1.688 1.563 3 3l-1 2-2-1v2l2.25-.312c2.75.312 2.75.312 5 2.5 1.734 2.786 2.167 4.646 2.75 7.812 1.5 1.667 1.5 1.667 3 3v2l2.938.875C799 351 799 351 800 353l4-2c.8 3.287 1.097 4.71 0 8l2.313.813c2.646 1.169 3.983 1.886 5.687 4.187.688 2.688.688 2.688 1 5l5-1-1 3 1 1v2l4 1v2l1-2 2 1v3h3v3l-6 1 1-2h-3l-2 2 3 3a875 875 0 0 1-4.375 2l-2.46 1.125C812 390 812 390 810 390v2c-3.912 1.678-7.83 3.34-11.75 5l-3.367 1.445-3.242 1.368-2.984 1.269C786 402 786 402 782 402v-2h-3l-2-2c-2.603.32-2.603.32-5 1v2h-2l-.75-2.375c-1.016-2.733-1.016-2.733-3.312-3.937-1.752-.744-1.752-.744-2.938-.688l-2 1c-7.38-1.61-7.38-1.61-10-5v3c-6.75-1.625-6.75-1.625-9-5l-1-3h-6l-1-3c-2.763-.597-5.16-1-8-1-3.243-1.278-3.98-1.97-6-5l-2 1-5-5 2-1-1-2-5 1v-5h-6v-2h-2l-1 2v-4l-3 1c-2-6.75-2-6.75-2-9l-1.937-1.937C691 349 691 349 690 346l1-3-2.812-2.312c-4.644-3.886-4.644-3.886-6.188-5.688v-2h-3c-1.75-2.25-1.75-2.25-3-5l.625-2 .375-2-2.375-2c-3.935-4.498-3.523-9.202-3.625-15h-2l-1-4-.687-2.062C667 299 667 299 669 296v-3h3l-2-3c-.04-2-.043-4 0-6l-1-2 4-1v-2a18057 18057 0 0 1 31.527-13.044q7.953-3.286 15.91-6.562 2.623-1.08 5.245-2.164 3.706-1.53 7.416-3.054l2.244-.93c3.194-1.31 6.297-2.465 9.658-3.246l-1-2 3.938.063c3.233.005 6.354-.161 9.562-.563 9.42-1.119 18.147.01 27.5 1.5"/><path fill="#e5571c" d="m673 281-2 1 1 2h-2l2 9h-3l1 4h-2c.567 4.13.567 4.13 2 8l-1 2h2l.262 2.45c.689 7.041.689 7.041 4.363 12.8L678 324l-2 4 2 1c.625 2.063.625 2.063 1 4h3l1 2 3 2c5.607 5.073 5.607 5.073 6 9v3l1 3 3 1 1 8h3l1 2h2v2l1.813-.687L707 364c1.688 1.375 1.688 1.375 3 3 1.448 1.448 3.04 1.557 5 2l-1 3 4 4 3-2 .188 2.375c.551 2.846.551 2.846 3.25 4 2.53.91 2.53.91 4.562-.375 2.008.281 4.01.61 6 1v3l2.875.375c3.704.74 4.485 1.943 7 4.625 1.99 1.872 3.635 2.933 6.125 4v-3l3 1v2l8 1 1-2c2.308 1.154 4.078 2.264 6 4 .75 2.688.75 2.688 1 5l2-3c3.125-.687 3.125-.687 6-1l1 3h3l1 3c-7.212 3.252-14.489 6.34-21.794 9.374a1380 1380 0 0 0-3.933 1.643 1619 1619 0 0 1-5.757 2.401l-3.43 1.43A41 41 0 0 1 740 420v2l4 1c-2 1-2 1-5.049-.01a386 386 0 0 1-3.982-1.611l-2.197-.88q-2.379-.954-4.754-1.917c-4.344-1.76-8.7-3.491-13.053-5.227-.91-.362-1.818-.725-2.755-1.1-9.346-3.723-18.74-7.313-28.148-10.88l-13.274-5.038c-14.641-5.554-29.267-11.15-43.894-16.74l-6.937-2.652-3.395-1.297a5998 5998 0 0 0-19.988-7.593c-24.142-9.13-24.142-9.13-34.261-13.555l-2.035-.88c-5.03-2.277-10.35-5.13-13.778-9.558-.723-2.981-.313-5.123.5-8.062 1.563-1.875 1.563-1.875 3-3l-1-2 3.36-1.645 4.39-2.168c.73-.356 1.46-.712 2.21-1.08 4.2-2.05 4.2-2.05 7.993-4.744 2.194-1.46 3.598-1.758 6.162-2.248 4.609-.981 8.768-2.488 13.1-4.318l2.308-.954c2.474-1.024 4.944-2.059 7.414-3.093q2.583-1.072 5.167-2.14a6614 6614 0 0 0 13.268-5.516 7641 7641 0 0 1 19.698-8.166q3.323-1.377 6.643-2.761l4.025-1.667 3.533-1.469C651 288 651 288 653 288l1-2c1.82-.746 1.82-.746 4.125-1.437 3.028-.94 5.88-1.97 8.75-3.313C670 280 670 280 673 281"/><path fill="#df5e1e" d="M537 501c3.058.593 5.925 1.237 8.843 2.332l2.183.813 2.333.882 2.466.924a3395 3395 0 0 1 7.925 2.986l5.454 2.053c11.04 4.163 22.042 8.41 32.969 12.863 6.224 2.536 12.496 4.892 18.827 7.147v2l1.836.516c6.223 1.8 12.19 3.98 18.164 6.484l-2 1-1 3-1-1-1 2-3 1 .637 2.195c.44 3.396-.204 4.705-1.824 7.68l-1.403 2.629a347 347 0 0 1-3.66 6.308c-1.603 2.921-2.128 4.987-2.75 8.188-1.437 1.688-1.437 1.688-3 3l-2 2-1 1a361 361 0 0 0-3.062 5.563l-1.66 3.066L609 590l-2-2-.937 2.375c-1.302 3.216-2.26 4.856-4.563 7.563-2.625 2.845-2.625 2.845-3.5 6.062-2.437 2.688-2.437 2.688-5 5h-2v2h-3l-1 2-2-1-1 4-1-2a487 487 0 0 0-4 3l-2.625 1.875c-2.55 1.929-2.55 1.929-3.25 4.75L572 626c-2.314.73-4.648 1.401-7 2l-1 3c-2.896 1.448-4.742 2-8 2v2h-2v2l-2.375.25c-2.772.478-2.772.478-3.937 2.813L547 642l-2-1c-2.23 4.327-1.925 7.284-1 12-3.29-2.663-4.908-5.99-6-10-.454-4.609-.437-9.202-.432-13.83l-.031-4.2c-.028-3.785-.037-7.569-.043-11.354-.01-3.96-.036-7.922-.06-11.883-.044-7.494-.072-14.988-.095-22.481-.028-8.535-.071-17.07-.117-25.604-.093-17.55-.164-35.099-.222-52.648"/><path fill="#c64916" d="M618 532c4.626.733 8.878 2.325 13.242 3.965l2.487.925q4.075 1.52 8.146 3.048l5.694 2.125c16.888 6.314 33.726 12.764 50.546 19.259l2.931 1.13q2.718 1.046 5.433 2.099l2.435.937 2.11.816c2.64.93 5.303 1.553 8.038 2.134C721 569 721 569 724 571c1.446.655 2.908 1.277 4.379 1.875.838.345 1.677.69 2.54 1.047q2.649 1.08 5.298 2.156l2.537 1.047 2.322.945C743 579 743 579 745 581c-6.2 3.264-12.476 5.755-19.062 8.125q-3.608 1.316-7.211 2.64l-2.008.739c-10.006 3.692-19.951 7.545-29.907 11.371-13.419 5.154-26.843 10.29-40.312 15.313a3602 3602 0 0 0-35.375 13.437l-2.512.967a7211 7211 0 0 0-22.645 8.751l-5.45 2.115q-3.192 1.238-6.379 2.486c-16.727 6.482-16.727 6.482-23.577 6.494l-2.433.058C546 653 546 653 544.262 651.09c-2.595-4.298-2.26-7.208-1.262-12.09l4 2 3-5 4 1v-2h2v-2l3.75-1.25c3.617-1.337 5.606-2.918 8.25-5.75 2.25-.75 2.25-.75 4-1l2-7h3l1.75-1.812c3.48-3.383 7.382-5.188 12.25-5.188v-2h2l.813-1.937C595 605 595 605 598 604v-5l3-1c1.726-2.485 2.917-4.752 3.875-7.625C606 588 606 588 608.438 586.625c3.51-2.226 4.108-4.817 5.562-8.625l2-2 1.5-1.625C619 573 619 573 621 573l.188-3.562c.505-4.168 1.98-6.404 4.53-9.645 2.206-3.086 3.21-6.157 4.282-9.793-.37-2.18-.37-2.18-1-4l4-1 1-4 1 2 1-3-18-7z"/><path fill="#fd772a" d="m548 332 3 1-2.062 2.125c-2.223 2.72-2.223 2.72-1.938 5.938 1.474 4.33 3.67 6.158 7.563 8.437 2.624 1.615 3.938 2.817 5.437 5.5.188 2.75.188 2.75 0 5l1.223-1.543C563 357 563 357 565.12 357.074l2.317.613 2.308.575c2.265.742 4.228 1.478 6.254 2.738l1 3 7 1v3l2 1 1 3 2.063 2.063L591 376v2l3 1v3l2 1c1.275 5.45 1.275 5.45 0 8h4v7h-3l5 2-.254 1.828-.308 2.422-.317 2.39c-.122 2.373.3 4.081.879 6.36l-1 2 3-1c1.984 2.917 1.988 4.124 1.625 7.75L605 425l2 1v3h-2v3l-2 1 2 1-1 4h-2l-1 3-1 1q-.062 3.5 0 7l2 1-2 3q-.062 3.5 0 7c-.5 2.438-.5 2.438-1 4l4-1v5l-3-1c-.391 4.436.55 7.283 3 11q2.488.56 5 1c1.813 2.563 1.813 2.563 3 5l-3 1 1.813 1.688c2.173 2.298 3.656 4.556 5.187 7.312l1-2h2v-2h3c-.512 2.048-1.02 4.059-1.687 6.063-.59 2.258-.59 2.258 1.687 4.937h-3l5 2c-4.061 1.354-5.708.218-9.676-1.324l-2.029-.78a1080 1080 0 0 1-6.607-2.584q-2.292-.891-4.584-1.78c-3.935-1.531-7.864-3.075-11.791-4.622q-3.353-1.319-6.71-2.627a2596 2596 0 0 1-10.244-4.024q-2.811-1.11-5.624-2.21c-18.09-7.218-18.09-7.218-22.673-13.424l-1.652-2.148c-3.434-6.031-3.715-11.98-3.745-18.754l-.035-2.738c-.036-2.974-.058-5.948-.08-8.923l-.065-6.251q-.067-6.552-.118-13.103c-.043-5.56-.1-11.12-.162-16.68q-.068-6.46-.126-12.92-.028-3.072-.06-6.142c-.393-38.147-.393-38.147 9.18-48.298zm62 157 1 2Z"/><path fill="#fd802d" d="m695 602-4 1v4l-2 3-5-1 4-1v-2l-10 3h2c1.125 3.75 1.125 3.75 0 6l4 1c-3.981 1.327-7.85 1.07-12 1l1.5 1.375C675 620 675 620 675 622l1.938.313L679 623l1 3 3-1v5h5l1-2c1.573 3.67 2.144 5.443 1.125 9.375L689 640h-2v2l-2 1v2h2l2-4c4 6 4 6 4 9h3v4l-2 1 .875 2.188L698 665h-2l-1-2c-2.29 3.435-2.178 4.985-2 9h-2v3h-2v3l3 1-.496 2.137c-.521 2.96-.603 5.674-.567 8.676l.028 2.957L691 695l-3 1-3-6c-.105 2.21-.105 2.21 1 5a91 91 0 0 1-4 4h-2l-2-2c-2.536 1.015-3.794 1.685-5.312 4l-.688 2 1 2-1 2c-8.45-.365-15.45-3.276-23.187-6.5q-2.006-.82-4.01-1.637a2074 2074 0 0 1-9.962-4.1c-4.567-1.891-9.142-3.763-13.716-5.638l-2.715-1.118a423 423 0 0 0-14.972-5.82c-47.08-17.32-47.08-17.32-59.438-28.187l1-3 1 1c6.901.684 12.731-.423 19.188-2.75l2.695-.936c11.312-3.988 22.469-8.405 33.635-12.78 12.458-4.878 24.95-9.668 37.444-14.453a6982 6982 0 0 0 14.117-5.423 5469 5469 0 0 1 15.624-5.992q3.036-1.163 6.069-2.334c2.817-1.088 5.64-2.164 8.462-3.238l2.561-.998 2.352-.887 2.046-.785C692 601 692 601 695 602"/><path fill="#a2310e" d="m980.375 330 2.625 2-1 2h-3a141 141 0 0 0-5 5l-3 2c-.736 3.568-.736 3.568-1 7h-4l-1.437 1.938C963 352 963 352 960.313 352.75L958 353v2l-7 1v2h-3v2h-2l-1 3h-3l-2 5-2-1-1.375 2.813C935 373 935 373 933 376h-2v2l-3.25.5c-2.594.705-3.531 1.191-5.105 3.414A68 68 0 0 0 920 388h-2v2l-1.812.75c-2.476 1.414-3.522 2.979-5.188 5.25h-2v2l-2.375.75c-2.738.968-2.738.968-3.562 3.188-1.96 3.805-6.188 4.77-10.063 6.062-1.62 1.932-2.873 3.745-4 6-2.562.625-2.562.625-5 1v3l-1.937.313L880 419l-1 3-2 1v3l-2 2-1 2c-2.305 1.306-4.476 2.159-7 3l5 2c-3.744 1.248-4.834.581-8.484-.781l-3.47-1.282-3.796-1.437-3.924-1.462C834.829 423.504 817.416 416.746 800 410l-1 2v-3l-2.23-.55c-9.693-2.497-9.693-2.497-13.77-5.45 3.39-2.26 6.912-3.71 10.664-5.238l2.334-.96q3.812-1.56 7.627-3.115l2.673-1.092a2925 2925 0 0 1 39.844-15.942l2.096-.821 2.166-.848c11.24-4.408 22.462-8.86 33.685-13.31l7.728-3.06c12.644-5.004 25.283-10.013 37.838-15.236 5.41-2.229 10.875-4.303 16.345-6.378l5.332-2.05 5.73-2.2 2.78-1.072 2.63-1.006 2.352-.903c5.678-2.006 10.133-2.98 15.551.231"/><path fill="#eb571c" d="M897 482c4.226.59 7.933 1.582 11.91 3.117l3.457 1.324 3.696 1.434 3.852 1.48q4.014 1.54 8.028 3.087c4.594 1.767 9.198 3.507 13.803 5.245 5.406 2.04 10.806 4.094 16.204 6.153 2.626.999 5.255 1.987 7.886 2.973C976.837 510.985 985.47 515.138 991 526c.816 2.748 1.133 5.226 1.165 8.087l.034 2.441.022 2.652.035 2.816c.037 3.078.066 6.156.096 9.234l.07 6.453q.072 6.778.136 13.555.083 8.62.185 17.24.074 6.675.139 13.351.031 3.173.07 6.347c.43 37.289.43 37.289-4.952 44.824-2.137 1.191-2.137 1.191-4 2l.313-3.687c-.04-3.215-.213-4.163-2.063-6.938-11.707-9.66-29.226-14.087-43.258-19.215l-2.257-.828q-2.059-.751-4.127-1.48c-4.498-1.633-4.498-1.633-5.608-3.852-2.34-1.131-2.34-1.131-5.062-2.125l-2.786-1.07L917 615l1.867-.902c2.254-1.16 4.125-2.559 6.133-4.098 2-1 3.831-1.494 6-2l-1-6 6 2v-2l-2-1 1.875-.437c2.158-.495 2.158-.495 4.125-1.563v-13l5-1-.254 1.828-.308 2.422-.317 2.39c-.122 2.373.3 4.081.879 6.36l-1 2h3l-.562-2.375C946 595 946 595 947 593h3l1-2-3 1-2-5 1.5-1.375c1.726-1.501 1.726-1.501 1.5-3.625l3-2-.523-2.465c-.558-4.133-.392-7.952-.102-12.097l.133-2.249c.198-3.088.446-5.982 1.12-9.01.567-3.327-.984-5.352-2.628-8.179h2l-.937-3.687c-.775-3.091-1.476-6.18-2.063-9.313h-3a181 181 0 0 1-4-4l-3-1 2-2v-2l-2-1v-2l-4 1v-2l-2.875.063C929 520 929 520 927 519a109 109 0 0 1-1-7l-7-2v-6h4v-2l-8 1-1-2 2-3c-1.729-4.557-4.817-5.908-9-8v-3l-2.875-.437C901 486 901 486 899 485v-2z"/><path fill="#b7350f" d="m798.355 570.473 2.779 1.073q2.972 1.15 5.941 2.305c5.335 2.076 10.677 4.134 16.019 6.192l3.303 1.274c9.376 3.61 18.786 7.125 28.211 10.605 23.611 8.72 47.098 17.756 70.575 26.83q6.628 2.563 13.261 5.11 4.263 1.637 8.523 3.279 2.714 1.044 5.427 2.083a613 613 0 0 1 17.126 6.893l3.409 1.433c4.519 2.133 9.759 4.825 12.071 9.45.04 2.333.043 4.667 0 7l2-1c-4.005 9.174-14.743 12.357-23.375 15.875l-3.598 1.508C951.312 674 951.312 674 949 674l-1 2c-1.742.632-1.742.632-4.098 1.234-4.571 1.293-8.946 2.913-13.336 4.72l-1.969.805q-4.056 1.665-8.103 3.354c-1.993.83-3.991 1.648-5.99 2.465l-3.568 1.482C908 691 908 691 905 690l6-3-1-5h2l1 2q3.5.062 7 0l1-1h-3l-.75-2.875c-1.134-4.008-2.714-7.782-4.32-11.621-.874-2.353-1.367-4.54-1.805-7.004L910 658c-2.787-1.512-2.787-1.512-6-2-4.934-1.836-7.626-3.252-10-8l-3-2v-2h-2v-2h-2v-2l-6-1 2-6-6-2v-2c-2.49-.687-4.379-1-7-1v-3l-3 1-.25-1.875c-.53-2.26-.53-2.26-2.5-3.062L862 620a141 141 0 0 1-5-5l-6 2-1.75-2c-2.247-2.443-2.247-2.443-6.25-2v-2l-3-1v-3l-2.375.563C835 608 835 608 833 607v-3l-5-1-.375-1.937L827 599l-2-1-1 2-9-6v-2l-6-2v-1l-10-2-1 2-2-3-3-2 1-2-3.562.688c-4.65.613-7.331-.549-11.438-2.688v-2l-3-1 1-2v-4l1-1h-2v6c-3.755-.512-6.667-1.218-10-3 12.433-6.554 19.316-7.645 32.355-2.527"/><path fill="#fc7126" d="M776 436c6.02 1.182 11.605 2.804 17.297 5.082l2.29.897c2.39.938 4.776 1.886 7.163 2.834l4.75 1.869q4.6 1.809 9.197 3.625A1720 1720 0 0 0 834 457v2l2 1-7-1v3l3 1v-2q2.187-.079 4.375-.125l2.46-.07C841 461 841 461 843 463l-1 1 5 2v2l4 1v6h5l1 9 1-4h2l1-2c.677 1.245 1.34 2.496 2 3.75l1.125 2.11C865 486 865 486 865 490l3 1h-2l1 4-3 1 2 2 7-2 .375 2.313c.506 2.89.506 2.89 2.625 5.687.688 3.625.688 3.625 1 7l-1 1 2 2v4l2 2h-2l1.063 2.375L880 525l-1 2 2 1-1 2 2 1-1 6 2 1-1.562 2.188c-1.652 3.232-1.502 4.428-.438 7.812h-2l-.312 1.875C878 552 878 552 875 554c-.733 3.066-.733 3.066-1 6h2l.438 2.375c.44 2.59.44 2.59 1.562 4.625l-4-1 1 2-8-1-.875 2.938C865 573 865 573 863 574l-1 2-3-1-1 6-6-2-1 2 3 1-1 3 1 1c.04 1.666.043 3.334 0 5l6 1 1-2 2 1 1 3 2 2c-5.304-.65-9.924-2.308-14.879-4.203l-2.571-.969c-2.706-1.02-5.41-2.05-8.112-3.078l-5.37-2.027a2547 2547 0 0 1-10.354-3.936 412 412 0 0 0-8.784-3.246l-3.52-1.275-2.992-1.054c-2.698-1.352-3.834-2.678-5.418-5.212l1.938-.562c.68-.475 1.36-.95 2.062-1.438q.509-3.499 1-7c1.938-1.687 1.938-1.687 4-3 2.014-3.287 3.311-6.4 2.563-10.25L815 547h7v-2l-5 2-1-4 2-1-1-6 4 1v-3l10-3v-3l-2-2c-.286-2.004-.57-4.011-.754-6.027-.206-2.182-.206-2.182-1.246-4.973h4v-2l-7-1c0-4 0-4 1-5l1.563-1.312c1.87-1.826 1.87-1.826 1.437-5.688l-2-1c-.125-5.75-.125-5.75 1-8l-4 2-1-4h3l2-5h-8l-1-5-3-1v-3l-4-1 1-5-4-1v-1h-2q.212-2.437.438-4.875c.08-.905.162-1.81.246-2.742C807 457 807 457 808 455h-2l-1-2-2 1v-3l-1.687 1c-2.616 1.131-4.494 1.157-7.313 1l3-1-2-1v-3h3v-2q-2.156-.253-4.312-.5l-2.426-.281c-2.381-.267-2.381-.267-5.262-.219l-1 3-4-1 1-2c-.959-2.33-.959-2.33-4-4l3-2-5-2z"/><path fill="#e7591c" d="m746 583-4 1c0 3.767.235 4.912 2 8h-5v2l3-1 2 8 3.375.313L751 602l2 3c1.898.57 1.898.57 4 .813 2.156.449 2.156.449 4 1.187 1.5 3.125 1.5 3.125 2 6h3v2l4-1 1.25 1.875c1.806 2.193 3.16 3.053 5.75 4.125v3h2v3h2v4l8 1 .375 1.938L790 635l2 1v2h5l1 2q1.996.514 4 1c2.686 2.686 3.06 5.376 4 9l1.688-.75C810 649 810 649 812.75 650.813L815 653v2h2l1 2 3 2 1 1 3 2v3h6v6l3-1 2 3 2.063.5 1.937.5 1 3-3 1-1 3 3 1v4h1c.155 6.374-.34 12.147-3 18h-3v-2l-2-1 1.5-2c1.983-3.966 1.724-6.603 1.5-11l-2-1v-4h-2l-1 2c-1.062-2.375-1.062-2.375-2-5l1-2-3 2 1 1.813c1.286 2.812 1 5.118 1 8.187l3 1-.5 2.125c-.524 3.014-.571 5.822-.5 8.875h-3c-.25 2.416-.25 2.416 0 5l3 2-1.937.75c-2.262 1.047-2.262 1.047-2.625 3.313L826 715l-3 1-1 5h-3l-1 2 5-1c-2.59 2.59-5.514 3.534-8.871 4.82l-2.055.799q-2.151.832-4.305 1.659c-2.197.843-4.39 1.698-6.583 2.554l-4.182 1.613-1.989.777C792.181 735.3 790.062 736 787 736v2c-17.754 4.213-36.012 2.41-53-4 3-1 3-1 5-1l3-1c2-.04 4-.043 6 0 1.24.115 1.24.115 2.563-1.5L752 729l2 1v3l5 1 .75-2.187c1.36-3.06 3.08-5.28 5.25-7.813l3 1v3l3-1 1 1 3-3-1-2c3.62-1.316 6.096-2 10-2l2-1v-4l4-1 .332-2.082.48-2.73.458-2.708c.73-2.48.73-2.48 2.316-3.953 1.697-1.507 1.697-1.507 1.559-4.191l-.332-2.961-.293-2.977L794 691l-2-1 .125-3.625c.015-2.918-.21-4.617-1.187-7.437-1.162-3.64-.679-6.234.062-9.938l-4-2v-4l-2-1h2l-3-4-6 1 1-7h-2v-2l-3.312.688C770 651 770 651 768.063 649.563L767 648l2-4h-3v-2h-2v-3h-4l-1-4h-4l-2-6-2 1-1.875-1.937c-1.951-2.102-1.951-2.102-4.125-3.063-.855-3.08-1.475-6.183-2.121-9.312L742 613l-3-1-1-5-4 2-1-4h-2l-2-8-4-1v-2l-5-1c2-2 2-2 3.945-2.195L730 591l-2-2v-2q3.368-1.3 6.75-2.562l1.922-.749c3.438-1.271 5.85-2.156 9.328-.689m65 69 1 2Zm-27 11 2 2h-2z"/><path fill="#f16320" d="m702 269-4 2 6 1v3l2 1c.625 2.063.625 2.063 1 4h-2v4l2 1-1 4-5 1c.575 3.93.575 3.93 3 7l-4 2 3 1c2.68 2.154 3.482 3.897 4.168 7.23.17.803.342 1.605.518 2.432l.501 2.526.538 2.56c.435 2.082.856 4.167 1.275 6.252h2c2.018 2.906 3.355 5.517 4 9l3-1c.125 5.75.125 5.75-1 8l2.313-1.062C723 335 723 335 726 336l1 3h-2v3h6l-1 5h4v-2l5-1 3 10h2l.438 3.313c.445 3.618.445 3.618 1.562 6.687l2.117.078 2.758.172 2.742.14c2.383.61 2.383.61 3.703 2.657L758 369h3v2l4-1 1 2h-2c2.392 2.392 3.678 2.676 7 3l3-2c3.652 1.922 5.362 3.22 7 7l2 1 1-1 2.313.938c1.875.74 3.774 1.424 5.687 2.062.685 1.324 1.349 2.66 2 4l2.125 2.063C798 391 798 391 798 394l-6-1v3l2 1c-2.36 2.734-4.565 3.911-8 5h-4v-2h-3l-2-2c-2.603.32-2.603.32-5 1v2h-2l-.75-2.375c-1.016-2.733-1.016-2.733-3.312-3.937-1.752-.744-1.752-.744-2.938-.688l-2 1c-7.38-1.61-7.38-1.61-10-5v3c-6.75-1.625-6.75-1.625-9-5l-1-3h-6l-1-3c-2.763-.597-5.16-1-8-1-3.243-1.278-3.98-1.97-6-5l-2 1-5-5 2-1-1-2-5 1v-5h-6v-2h-2l-1 2v-4l-3 1c-2-6.75-2-6.75-2-9l-1.937-1.937C691 349 691 349 690 346l1-3-2.812-2.312c-4.644-3.886-4.644-3.886-6.188-5.688v-2h-3c-1.75-2.25-1.75-2.25-3-5l.625-2 .375-2-2.375-2c-3.935-4.498-3.523-9.202-3.625-15h-2l-1-4-.687-2.062C667 299 667 299 669 296v-3h3l-2-3c-.04-2-.043-4 0-6l-1-2 4-1v-2q5.464-2.395 10.944-4.755a725 725 0 0 0 3.721-1.62c1.781-.782 3.568-1.55 5.355-2.316l3.253-1.413C699 268 699 268 702 269"/><path fill="#b03b11" d="M979 328c4.834 1.137 6.99 3.902 9.707 7.813 7.575 12.815 2.952 33.971 2.293 48.187h-1l-.184-2.117-.254-2.758c-.08-.905-.162-1.81-.246-2.742-.186-2.394-.186-2.394-1.316-4.383l-2.812 1.5C982 375 982 375 979 375c-2.532.173-2.532.173-5 1-1.685 1.997-1.685 1.997-3 4h-2l-.312 1.938L968 384l-3 1a90 90 0 0 0-2 4l-2 1c-.658 3.03-.658 3.03-1 6l-5 1-1 3-1 2h-4l-.875 2.313C947 407 947 407 945 410h-3c-1.47 3.91-1.47 3.91-2 8l-1.937.313L936 419l-1 3h-2l1 4-3 1v3l-6 1 .188 2.813C925 437 925 437 923.5 438.438c-1.882 1.6-1.882 1.6-1.5 4.875 0 4.091-.959 6.2-3 9.687l5 2c-3.602 1.2-4.445.72-7.915-.599l-3.023-1.133-3.257-1.256-3.343-1.268q-3.501-1.332-6.996-2.676c-3.579-1.376-7.164-2.734-10.751-4.09q-3.393-1.293-6.785-2.591l-3.27-1.238-3.004-1.162-2.658-1.018C871 437 871 437 870 435c-2.017-1.134-2.017-1.134-4-2l1.938-.875c2.214-.953 2.214-.953 3.062-3.125 2.063-.625 2.063-.625 4-1l-2-1 4-1-1-5h3q1.53-1.47 3-3h2v-3h4l.313-1.812c1.03-3.277 2.694-4.66 5.687-6.25l2-.938 3-2h3l1-5 6-1v-2c4.865-5.54 4.865-5.54 9-6v-2l2-1 .75-3.437c1.25-3.563 1.25-3.563 4.188-5C928 378 928 378 931 378l.25-1.75c.96-2.878 2.59-4.155 4.75-6.25 1.235-2.133 1.235-2.133 2-4h2l2-4h3l1-2h2v-2h3v-2l2.813-.812c3.051-1.137 4.037-1.936 6.187-4.188h3c2.688-2.438 2.688-2.438 5-5v2h2l-.25-3.25c.25-3.75.25-3.75 2-5.937L974 337l2.063-2.187C978 333 978 333 981 332z"/><path fill="#f97026" d="m703 599-7 2 1 11 2.938.75L703 614c.563 1.875.563 1.875 1 4 2.477 2.249 2.477 2.249 5 4l2-1v4l4 2v3l2 1v5l3 1 1 5h2v3l4-1-1 3-3 1c2.868 2.102 2.868 2.102 6 3l1 5h4l1 2h3c2 2 2 2 2.09 3.953l-.153 2.297c-.126 4.395 1.06 6.832 3.063 10.75a299 299 0 0 1-1 6l1.5 1.438L745 684c-.236 3.24-.695 6.112-1.75 9.188-.48 1.983-.48 1.983 1.188 3.937L746 699v2l2 2-2 1 2 5h-3v3l-3.437 1.125c-1.944.741-1.944.741-3.563 1.875-1.057 3.084-1.057 3.084-1 6h-1l-1-4h-3v4l3-1v2h-2l-1 3h-3l-1 2-1-7h-2l.5-1.937c.54-1.871.54-1.871.5-3.063h-3v3l-3 1v-2l-8 1v5c-2.763-.523-5.326-1.109-8-2v-2l-3.559.375c-7.351 0-13.896-3.481-20.504-6.375q-2.033-.87-4.068-1.734c-3.297-1.405-6.585-2.83-9.869-4.266 3-1 3-1 6 0l-.812-3.25c-.188-3.75-.188-3.75 2-6.187C676 696 676 696 680 696v3h2l1-3 2-1-1-2-1-2 2-3c3 5.75 3 5.75 3 8l2-1-.035-3.246-.028-4.192-.025-2.142c-.009-1.807.036-3.614.088-5.42l1-1-2-1v-3h2v-3h2l-.687-3.312C692 665 692 665 693.438 663.063L695 662l1 3c0-2.64-.351-4.485-1-7v-2l-3-1 1.438-1.375c1.652-1.558 1.652-1.558 2.562-3.625h-3l-4-8-2 3h-2l-1-3h3v-2h2l.625-3.875.352-2.18L690 632l-2-2-3 1-2-1c-.625-2.062-.625-2.062-1-4h-2l-1 3-1-6-3-1a95 95 0 0 1-4-5c1-1 1-1 3.066-1.098l2.496.035 2.504.028L681 616l-.5-1.812C680 612 680 612 680 609l-5 1c2.525-2.525 4.138-2.557 7.625-3.125l3.04-.508L688 606l-1 3 3-1v-3c2.067-3.26 3.517-4.783 7.063-6.375C700 598 700 598 703 599"/><path fill="#cb4214" d="M622.188 301.938 624 303c-1.613 2.712-3.249 5.374-5 8l-5-1 2-5h3l1-2-9 4 2 1-3 7h2l.313 2.688c.699 3.37 1.774 5.485 3.687 8.312l1-3h2l-1 8h3l.402 2.117.535 2.758.528 2.742C622.9 341 622.9 341 624 343h-2v2h4l-1 3 1 1c.233 1.682.413 3.371.563 5.063l.253 2.785L627 359l2.875.688C633 361 633 361 634.375 363.625L635 366h2v3h4v2l3 1v2l4 2v2l2 1 .75 2.5L652 384c2.894.76 2.894.76 6 1 2.375 1.063 2.375 1.063 4 2l-1 3h5v3l1.863-.219 2.45-.281 2.425-.281C675 392 675 392 678 392v3l4 1v2l2 1c.687-2.49 1-4.379 1-7l2.688.938A62 62 0 0 0 696 395l1 3c1.88 1.393 1.88 1.393 4.188 2.563l2.46 1.316c2.457 1.244 2.457 1.244 5.664 2.121 3.396 1.263 4.673 3.055 6.688 6l-1 2c-5.347-.644-9.958-2.35-14.934-4.297l-2.681-1.033c-2.943-1.135-5.883-2.278-8.822-3.42q-3.126-1.208-6.253-2.413-4.956-1.91-9.91-3.824a8446 8446 0 0 0-35.183-13.48q-5.284-2.015-10.57-4.035a8843 8843 0 0 0-30.053-11.435c-24.169-9.142-24.169-9.142-34.282-13.563l-2.034-.88c-5.03-2.277-10.35-5.13-13.778-9.558-.723-2.981-.313-5.123.5-8.062 1.563-1.875 1.563-1.875 3-3l-1-2 3.36-1.645 4.39-2.168c.73-.356 1.46-.712 2.21-1.08 4.2-2.05 4.2-2.05 7.993-4.744 2.185-1.455 3.542-1.74 6.093-2.22 5.014-1.066 9.547-2.814 14.259-4.803l2.563-1.06a2174 2174 0 0 0 8.007-3.342q4.034-1.68 8.072-3.353 2.5-1.039 4.998-2.084l2.277-.95 1.997-.837c4.536-1.819 4.536-1.819 6.968-.776"/><path fill="#f15e1e" d="M884 477c4.847.591 8.607 1.98 13 4v2h2v2l8 2v3l2.813.875C913 492 913 492 916 494c.688 2.625.688 2.625 1 5h-2v3h8v2l-3 1-1 5 7 1 .563 3.375L928 518c3.514 1.54 3.514 1.54 7 2v2l4-1v2l3 1-1 4 1.938.813C945 530 945 530 946 533h3c2.224 4.633 3.365 7.765 3 13-.156 2.083-.156 2.083 1.063 4 1.393 4.46.525 8.42-.063 13q-.333 3.154-.625 6.313c-.095.965-.19 1.93-.29 2.925-.2 2.771-.2 2.771.513 5.45L953 580c-1.937 2.688-1.937 2.688-4 5v2h-3v2c2.118 1.118 2.118 1.118 5 2l-1 3-3-1v7h-3c-1.333-9.41-1.333-9.41 0-14h-3v13l-3 1-1 2-1 2-5-1 .188 2.375L931 608c-3 2-3 2-5 2.375-2.691.84-3.505 2.307-5 4.625 2.084 2.084 5.318 2.878 8 4-5.199 1.733-10.04-1.306-15-3.187l-3.352-1.213-3.21-1.205-2.942-1.099c-3.846-1.997-5.148-4.251-6.496-8.296l-2-1 1-3h7l.313-1.937L905 596l3-1-3-2-1 2-1-8c2.892-.826 4.887-1 8-1l.438-1.875C912 582 912 582 913 580l-3 1c1.084-6.142 2.154-10.8 7-15h-2v-5l3 1v-2h-2l-1-3 2-1 .938-3.5L919 549l3-1h-3l-2-3-3-1-1-3 1-2-3-1 .125-3.25c-.114-3.407-.338-4.957-2.125-7.75l2-1v-7h-2v-4c-2.427-1.79-2.427-1.79-5-3l2-3h-2l1-3 2 1v-2h-2l-.375-2.437L904 500l-2-1 1-6-3 1-3-2-3-1v-2h-2v5c-2.154-2.622-3.4-4.644-4-8h2l-1-3-2-1 1-2z"/><path fill="#c43e12" d="m778 569 2 1-3 1v4l2 1-2 1 2 1v2l2.313.438C784 581 784 581 787 582c2.333.04 4.667.044 7 0v2c2.286 1.772 2.286 1.772 5 3l3-1c3.653.442 7.025 1.188 9.875 3.563L813 591l2 1v2l1.688.813C819 596 819 596 821.5 597.625c2.609 1.696 2.609 1.696 6.5 1.375v4l5 1v3h7l1 3 2 1v2l1.688-.75L847 612c1.176 1.02 1.176 1.02 2.375 2.063L852 616c3.281-.62 3.281-.62 6-2l1.813 2.375c2.098 2.77 2.098 2.77 5.187 4.625l1.563 2.125L868 625h2l1 2h3l3 2v2h6c1 3 1 3 .063 5.188L882 638l6 1-1 3h2v2h2v2l1.813.688C895 648 895 648 896.5 650.563c1.237 2.56 1.237 2.56 3.438 3.187L902 654l4 1v2h5l.75 3.875c1.814 8.7 1.814 8.7 6.25 16.125.04 2 .043 4 0 6l6-1c-1.904 1.904-3.334 2.935-6.047 3.2-1.985-.011-3.97-.1-5.953-.2v-3h-2l2 6-7 2v2a2189 2189 0 0 1-12.312 5.063l-3.538 1.47-3.388 1.377-3.127 1.286C880 702 880 702 877 701l12-5c.075-5.533-.045-10.546-1-16l1-2-3-2c-1.063-2.568-1.04-3.838-.375-6.562L886 667a135 135 0 0 0-3-3c-1.098-2.008-1.098-2.008-2.062-4.125-1.281-3.076-1.281-3.076-3.938-4.875v-2l-4-1-2 3-2-2 1-2h-6l-2-7-4 1-2-3c-2.552-1.205-2.552-1.205-5-2v-2h-2l-1-1a519 519 0 0 0-5-1c-6.471-1.339-6.471-1.339-9-4.5l-1-2.5 1-2h-3v-2c-2.791-.982-2.791-.982-4.875-1.437-2.471-.655-4.768-1.58-7.125-2.563v-2l-4-2v-2h-2v-2c-3.386-1.51-3.386-1.51-7-2v-4l-3 1-.625-1.812c-1.884-2.998-4.186-3.802-7.375-5.188v-3h-2l-2-2c-1.833-.602-1.833-.602-3.875-1-2.959-.678-5.48-1.457-8.125-3v-2h-4v-2l-1.937-.375L771 587l-1-2c-2.014-.836-2.014-.836-4.375-1.5-3.051-.914-4.92-1.696-7.625-3.5-2.754-.025-2.754-.025-5.687.375l-3.012.336L747 581c2.664-2.664 5.754-3.738 9.188-5.125l1.962-.84c4.428-1.796 8-2.324 12.85-2.035l1 2c2.025.652 2.025.652 4 1v-6z"/><path fill="#a2300d" d="m684.441 556.125 2.439.93q3.842 1.468 7.683 2.945 3.845 1.475 7.693 2.945 2.39.913 4.778 1.833l2.195.84 1.919.737c2.597.905 5.227 1.512 7.914 2.082C721 569 721 569 724 571c1.446.655 2.908 1.277 4.379 1.875.838.345 1.677.69 2.54 1.047q2.649 1.08 5.298 2.156l2.537 1.047 2.322.945C743 579 743 579 745 581c-6.2 3.264-12.476 5.755-19.062 8.125q-3.608 1.316-7.211 2.64l-2.008.739c-10.006 3.692-19.951 7.545-29.907 11.371-14.836 5.699-29.682 11.362-44.58 16.9a1109 1109 0 0 0-19.97 7.659l-4.35 1.711a1257 1257 0 0 0-8.258 3.288l-3.705 1.462-3.27 1.307C600 637 600 637 597 636l20-8v-4l2.688-.125c4.35-1.15 5.495-3.48 8.312-6.875 2.813-.375 2.813-.375 5 0l-.187-3.25c.197-3.94.666-4.914 3.187-7.75v-2l3-1 2-3h2l1-3h2l.313-1.937L647 593l3-1a396 396 0 0 0 3-5h2v-2h2l-1-3 2-3h2v-3h5l.875-3.312C667 569 667 569 669 566c.83-3.477.83-3.477 1-7l-2-3 1-2-2-1c6.128-2.043 11.728.917 17.441 3.125"/><path fill="#d84c18" d="m639 295-1 1 2 1-2 4h-3c-.25 2.916-.25 2.916 0 6l3 2h-3l-1 6h4l-1 4 2 1v3l1.938.875C643 325 643 325 644 327h-2v4l1.813.125c2.187.875 2.187.875 3.937 3.75C649 338 649 338 649 341l2 1-1 8h2l2 5 4-2v3h4v3l3 1-1 2h2v3l5 2-2 1v2c.638.182 1.276.364 1.934.55.826.252 1.652.504 2.504.762l2.496.739L678 373l1 3 2 1 1-2c2.926 1.312 4.753 2.753 7 5l1.871.813c2.667 1.487 3.905 3.225 5.692 5.687 2.095 2.875 3.435 4.499 6.437 6.5l2-2c4.765 2.382 4.765 2.382 6 5.625l1 2.375c2.548.894 2.548.894 5 1v2l3-1c3.188 1.438 3.188 1.438 6 3v1h10l1 3 2 2 1 3h4l2 3 10-3 1-5 2-1 2-3 3.313 1c3.533 1.13 3.533 1.13 6.687 1l3 1a4558 4558 0 0 1-12.115 5.072q-2.06.86-4.118 1.726-2.964 1.244-5.935 2.48l-3.602 1.507c-2.774 1.043-5.313 1.75-8.23 2.215v2l4 1c-2 1-2 1-4.781.183a796 796 0 0 1-9.278-3.533 418 418 0 0 0-5.998-2.252q-1.897-.731-3.79-1.468l-3.5-1.337C714 413 714 413 713.177 410.504L713 408l-1-3-7-1v-2l-2.812-.875C699 400 699 400 696 398v-3h-2l-1 2v-2l-7-1v2l-2 3-4-2 1-1-3-1v-3l-1.863.219-2.45.281-2.425.281C669 393 669 393 666 393v-3l-2.375.625L661 391l-2-2h3c-.809-2.198-.809-2.198-3.031-2.71q-2.467-.664-4.938-1.313L652 384c-.656-2.04-.656-2.04-1-4l-2-1-2-3c-2.552-1.205-2.552-1.205-5-2l1-2-4-1v-2h-2v-3h-2l-4-4-2.687-1.125C626 359 626 359 625.46 356.695c-.363-3.578-.461-7.1-.461-10.695l1-1h-4v-4l-1-2c-.134-2.672-.043-5.323 0-8h-3c-.125-5.75-.125-5.75 1-8l-2 1c-.652 2.025-.652 2.025-1 4-2-3-2-3-2-6l-2-1 1-2-2-1 1-3h-2l2-7-4-1q2.435-1.005 4.875-2l2.742-1.125C618 303 618 303 620 303l-1 3-3-1-2 5h5a101 101 0 0 0 3-6l-1-2c2.556-3.017 5.384-4.243 9-5.75l3.188-1.36C636 294 636 294 639 295"/><path fill="#d14715" d="M763 581v2l7 1 1 3c2.93 1.17 2.93 1.17 6 2l2 1v2a89 89 0 0 0 6.324 1.43l2.364.445 2.386.43L792 595l1 3h2v3l1.688.188c3.24 1.138 4.943 3.38 7.312 5.812h2v4l3-1c2.188 1.313 2.188 1.313 4 3v2h2l5 6h2v2l2.25-.687c2.75-.313 2.75-.313 5.063 1C831 625 831 625 831 627h3l.313 1.813c.81 2.579 1.53 3.569 3.687 5.187a76 76 0 0 0 5 1c1.68.634 3.35 1.293 5 2v-2l2 1-1 2h2l1.438 1.5C854 641.346 854 641.346 857 641l2 3h3l1.188 2.938c1.488 3.284 1.488 3.284 4.5 3.937L870 651l1 3 2-4 1 2 3 1v2l3 1a89 89 0 0 1 2 5l2 2c3.106 4.257 3.106 4.257 2.625 7.625L886 673c.998 2.993 1.752 3.948 4 6l-1 2c.113 1.443.288 2.88.5 4.313.444 3.483.493 6.268-.5 9.687l2 1q-2.934 1.256-5.875 2.5l-3.305 1.406C879 701 879 701 877 701v2a5960 5960 0 0 1-20.343 8.173q-3.464 1.387-6.923 2.785c-3.31 1.337-6.625 2.661-9.941 3.983l-3.135 1.275-2.911 1.153-2.564 1.03C829 722 829 722 826 721l17-7-3-1 1-5c3.875-1 3.875-1 5-1a125 125 0 0 1 3 4c5.614-1.564 10.868-3.164 16-6l-2-3a75 75 0 0 1-1-5h1c.227-3.562.428-7.124.625-10.687l.195-3.053.157-2.96.158-2.713c-.152-2.905-.992-4.932-2.135-7.587-.125-2.812-.125-2.812 0-5l-3-1-1-6-7 1-1-4h-3v-2h-5v-2h-2v-2h-4v-3l-2-1v-2l-3 1 2-5-2-1v-2h-3v-3h-3l-1 3c-2.437-.375-2.437-.375-5-1l-1-2-2 1-1-6-5 1-2-3h-3l-4-3h-3v-3l-5 1-2-7-5-1v-3l-3.375-.937C779 608 779 608 777 607v-3h-2v-2l-4-1 1-4h-5l2-1v-2l-4 1v-3l-3.312-.437C758 591 758 591 755 590v-3l-1.937-.437C751 586 751 586 750 585l-1 4c-3.653-1.25-4.78-1.671-7-5 6.158-6.158 12.892-5.703 21-3"/><path fill="#fb6f26" d="m548 332 3 1-2.062 2.063c-2.327 2.867-2.327 2.867-1.625 6.625L548 345l-1 2 8 5-1 4 3 1-.062 2.813c-.096 3.21-.096 3.21 1.062 6.187h-2l3 5-2 1 1 3v-3l2 1q.039 2.938.063 5.875l.035 3.305C560 385 560 385 559 387l-3 1-2 3h3l1 3h-2v6h-2v2l3 1-1 5h-2l1.063 2.813C556 414 556 414 555 417h2v2l-4 1 4 5h-2l1 4h-2v4l-2 2 1.5 1.125c2.098 2.623 1.64 4.599 1.5 7.875.842 1.947.842 1.947 2 3l-2 5 4 2v3c.415 4.713.957 9.38 2 14l2.938.938C567 473 567 473 568 474l1-2h2c1.508 1.531 1.508 1.531 3.125 3.5l1.633 1.969L577 479l-4 1v2h3l1 3 3 1 .875-1.937C582 482 582 482 584 481l1 8 1.941.55c5.203 1.513 10.13 3.2 15.059 5.45-4.12 1.373-6.748-.154-10.605-1.684l-2.294-.888a929 929 0 0 1-4.83-1.895c-2.4-.947-4.806-1.877-7.214-2.804-7.787-3.03-15.452-6.244-22.96-9.916l-1.98-.952c-6.716-3.38-10.746-7.86-13.169-14.93-1.217-4.396-1.263-8.67-1.283-13.208l-.035-2.738c-.036-2.974-.058-5.948-.08-8.923l-.065-6.251q-.067-6.552-.118-13.103c-.043-5.56-.1-11.12-.162-16.68q-.068-6.46-.126-12.92-.028-3.072-.06-6.142c-.393-38.147-.393-38.147 9.18-48.298z"/><path fill="#e9531a" d="M987 521c3.154 2.58 3.967 5.102 5 9 .3 3.136.321 6.259.335 9.407l.035 2.817c.036 3.067.058 6.134.08 9.202q.03 3.222.065 6.443.067 6.76.118 13.52c.043 5.731.1 11.462.162 17.193q.068 6.662.126 13.325.028 3.165.06 6.33c.373 37.267.373 37.267-4.981 44.763-2.137 1.191-2.137 1.191-4 2l.313-3.687c-.04-3.215-.213-4.163-2.063-6.938-7.155-5.976-16.792-9.146-25.437-12.37-4.708-1.795-4.708-1.795-5.813-4.005-2.017-1.134-2.017-1.134-4-2l4-3 1 2-.062-2.375C952 620 952 620 953 618c-.892-2.117-.892-2.117-2-4l2-1-1-4 3-2v3l1.375-2 1.625-2h2v-2l7-1-2-1 1-2v-2l3-1c1.245-2.323 1.245-2.323 2.188-5.062l1.042-2.786L973 587h2l-.035-1.863-.028-2.45-.035-2.425C975 578 975 578 976 575c.04-2.333.044-4.667 0-7h3v-2h-2c-.879-6.152-.879-6.152-1-8l1-1-2-3h5v-9h2l-.875-2.125c-1.151-2.942-2.248-5.84-3.125-8.875l1-2h2v-2h3l1-2c2.063-.625 2.063-.625 4-1z"/><path fill="#c04616" d="M988 340h1v34l-1-2-2.812 1.5C982 375 982 375 979 375c-2.532.173-2.532.173-5 1-1.685 1.997-1.685 1.997-3 4h-2l-.312 1.938L968 384l-3 1a90 90 0 0 0-2 4l-2 1c-.658 3.03-.658 3.03-1 6l-5 1-1 3-1 2h-4l-.875 2.313C947 407 947 407 945 410h-3c-1.47 3.91-1.47 3.91-2 8l-1.937.313L936 419l-1 3h-2l1 4-3 1v3l-6 1 .188 2.813C925 437 925 437 923.5 438.438c-1.882 1.6-1.882 1.6-1.5 4.875 0 4.091-.959 6.2-3 9.687l5 2c-3.44 1.147-4.003.871-7.23-.434l-2.432-.966-2.525-1.038-2.561-1.025A856 856 0 0 1 903 449v-2l-4-1c-.625-1.875-.625-1.875-1-4l2-2a89 89 0 0 0 2-4h2l-1-5 2.813-.562c3.487-1.173 3.487-1.173 4.875-4.75L912 422a157 157 0 0 1 3-5l1-2 3-1-1-2 5-1v-4l2-1c.656-2.527.656-2.527 1-5l3-1a142 142 0 0 0 5-5c2-2 2-2 4.063-2.75 2.297-1.167 2.297-1.167 2.687-4.375L941 385h2l1-2h3l2-5h2l-1-3 4 1v-2h2c1.106-2.39 1.106-2.39 2-5l-1-2 2.938-1.375c3.133-1.283 3.133-1.283 4.062-3.625h4v-2l2-1c1.134-2.017 1.134-2.017 2-4v2c.68-.31 1.361-.619 2.063-.937 3.307-1.197 6.452-1.653 9.937-2.063v-7h2z"/><path fill="#fb7c2b" d="M537 501c3.558.61 6.683 1.578 10 3v2l2.012.586c8.77 2.586 8.77 2.586 12.988 4.414l-3 1-2-1v3l4-1v2l3.875-.75c5.74-.685 10.035 1.274 15.125 3.75l-6 2c-.18 3.947-.094 6.598 2 10l-3 1v7q.483 3.502 1 7h-2l.625 2.375L573 550l-2 2-2-1v2l2 1c-1.509 3.233-2.706 5.353-6 7v2l2 1-2.375 1.875c-2.593 2.024-2.593 2.024-4.625 4.125l-1 1-.687 1.938c-1.87 2.939-4.038 3.208-7.313 4.062l1 3h-5v2h-2v2l-2 1c-.652 2.025-.652 2.025-1 4h-2v19h-1l-.031-3.973q-.147-18.497-.308-36.994-.084-9.51-.158-19.021-.072-9.172-.156-18.343-.031-3.506-.056-7.012-.037-4.896-.086-9.791l-.017-2.954-.03-2.685-.02-2.341c-.024-1.976-.024-1.976-1.138-3.886"/><path fill="#e4611f" d="M989 396h1v84c-6.566-.73-10.254-1.177-16.004-3.504l-1.845-.735a736 736 0 0 1-5.713-2.324l-3.924-1.576A1656 1656 0 0 1 953 468v-2l-4-2 5 1-1-2c-3.03-.658-3.03-.658-6-1l1-4h-2v4h-2c-.125-2.875-.125-2.875 0-6 3.162-3.162 5.663-4.297 10-5l1-5-2-1h2l.313-3.812c.432-3.53.998-4.821 3.687-7.188l1-3.062c1-2.938 1-2.938 4-4.938l1.5-3.062C967 420 967 420 970 419c1.219-2.504 1.219-2.504 2-5l3 1 1-4h2v-3c2-1.687 2-1.687 4-3l1 1 1-3h2l1-3 2 1z"/><path fill="#831d08" d="m937 343-7 2v2h-2v4l-12 1-.937 2.875C914 358 914 358 913 360c-1.937.688-1.937.688-4 1l-2-1-1 3-3-1v-3l-2.75 2c-3.25 2-3.25 2-7.25 2v2l-5 1v4h-3v3h-3l-2-2c-2.44 1.926-4.8 3.8-7 6h-3l-.812 2.813c-1.123 3.011-1.846 4.15-4.188 6.187l-1 2c-2.562.625-2.562.625-5 1l-.312 1.813c-.811 2.579-1.53 3.569-3.688 5.187-2.687.688-2.687.688-5 1v-2h-2v4l-2.437.875c-2.696.858-2.696.858-3.563 3.125h-5l1 3-5 1-.312 1.938L832 411l-3 1-1 3h-2l1 4c-6.001-.636-11.304-2.877-16.875-5.062l-2.953-1.143A1835 1835 0 0 1 800 410l-1 2v-3l-2.23-.55c-9.693-2.497-9.693-2.497-13.77-5.45 3.39-2.26 6.912-3.71 10.664-5.238l2.334-.96q3.812-1.56 7.627-3.115l2.673-1.092a2925 2925 0 0 1 39.844-15.942l2.096-.821 2.166-.848c11.24-4.408 22.462-8.86 33.685-13.31l9.609-3.804 9.115-3.612 3.507-1.387c5.045-2 10.077-4.02 15.067-6.157l2.4-1.023a306 306 0 0 0 4.244-1.857c3.328-1.429 5.529-2.312 8.969-.834"/><path fill="#d1531a" d="M538 503h1l1 128 5-5c2.168-1.477 2.168-1.477 4.188-2.625 2.946-1.68 3.844-2.423 5.812-5.375l1 1 1.188-1.437c2.22-1.915 3.946-2.176 6.812-2.563v-3h2v-3l2.875-.75c3.56-1.424 3.642-1.967 5.125-5.25 2.125-.75 2.125-.75 4-1l.125-2.687c1.206-4.568 3.075-5.599 6.875-8.313l2-1c1.306-2.305 2.159-4.476 3-7l5 1 .281-1.82c.888-2.693 1.95-3.409 4.219-5.055 2.834-2.272 3.42-2.84 4.438-6.5L604 568h2l1-3h2l.813-2.125c1.265-3.064 2.548-5.99 4.187-8.875l3-1-.562-1.812C616 549 616 549 617 546l-3-1 2-5-2-1 1-3c8.744-1.994 14.991.372 23 4l-2 1-1 3-1-1-1 2-3 1 .637 2.195c.44 3.396-.204 4.705-1.824 7.68l-1.403 2.629a347 347 0 0 1-3.66 6.308c-1.603 2.921-2.128 4.987-2.75 8.188-1.437 1.688-1.437 1.688-3 3l-2 2-1 1a361 361 0 0 0-3.062 5.563l-1.66 3.066L609 590l-2-2-.937 2.375c-1.302 3.216-2.26 4.856-4.563 7.563-2.625 2.845-2.625 2.845-3.5 6.062-2.437 2.688-2.437 2.688-5 5h-2v2h-3l-1 2-2-1-1 4-1-2a487 487 0 0 0-4 3l-2.625 1.875c-2.55 1.929-2.55 1.929-3.25 4.75L572 626c-2.314.73-4.648 1.401-7 2l-1 3c-2.896 1.448-4.742 2-8 2v2h-2v2l-2.375.25c-2.772.478-2.772.478-3.937 2.813L547 642l-2-1c-2.23 4.327-1.925 7.284-1 12-3.288-2.661-4.912-5.991-6-10-.428-4.55-.379-9.08-.34-13.646q0-2.07-.002-4.141c0-3.731.017-7.462.038-11.193.019-3.905.02-7.81.024-11.715.01-7.388.034-14.775.064-22.163.034-8.413.05-16.827.065-25.24q.048-25.951.151-51.902"/><path fill="#be3811" d="m580 317 3 1v1l1.25 1.125c2.57 2.753 4.082 5.479 5.75 8.875-.25 2.438-.25 2.438-1 4l3 2v-8l2 1v7h4l.313 1.688c.577 2.425.577 2.425 2.312 4.5 1.743 3.566 1.294 5.685.703 9.519-.448 3.129-.395 6.138-.328 9.293h8l.813 2.313c1.154 2.611 1.9 4.016 4.187 5.687h4l1 3 2 1 3 3 2-3h-2l-1-5 3 1 .313 1.938L627 372c2.751 1.162 5.4 1.87 8.313 2.5l1.687.5 1 2 3 1v2l2 1v3l6-1 3 5c-4.938-.626-9.319-2.106-13.922-3.922l-2.318-.898q-3.758-1.458-7.51-2.93-3.952-1.537-7.907-3.071l-5.387-2.095q-8.714-3.388-17.46-6.69c-25.214-9.526-25.214-9.526-35.183-13.894l-2.031-.879c-5.031-2.277-10.354-5.13-13.782-9.558-.723-2.982-.313-5.124.5-8.063 1.563-1.875 1.563-1.875 3-3l-1-2 3.36-1.645 4.39-2.168c.73-.356 1.46-.712 2.21-1.08 2.934-1.453 5.654-2.814 8.267-4.798 2.12-1.565 3.82-1.96 6.398-2.434 3.292-.621 3.292-.621 6.375-1.875"/><path fill="#a1270b" d="M844 589c3.56.635 6.827 1.562 10.223 2.8l3.24 1.182 3.6 1.33 1.891.697c20.764 7.646 41.381 15.687 62.02 23.663a7139 7139 0 0 0 13.53 5.213q4.239 1.628 8.476 3.261 2.705 1.04 5.41 2.076a613 613 0 0 1 17.13 6.895l3.409 1.433c4.519 2.133 9.759 4.825 12.071 9.45.04 2.333.043 4.667 0 7l2-1c-4.005 9.174-14.743 12.357-23.375 15.875l-3.598 1.508C951.312 674 951.312 674 949 674l-1 2c-2.11.816-2.11.816-4.75 1.563l-2.61.753A117 117 0 0 1 933 680c2.8-2.258 5.42-3.735 8.766-5.043l2.695-1.064 2.789-1.08 2.836-1.116Q953.54 670.341 957 669l-1-2.375c-1.23-3.228-1-5.073-1-8.625l3-1h-5l-1-5h-2v-2l-3 1v-2h-3l-1 4-2-3h-3v-4h-3l-.75-2.875c-.928-3.202-.928-3.202-3.312-4.437L929 638c-1-1-1-1-2-4-2.015-.733-2.015-.733-4-1v-3l-5 1-1-3a102 102 0 0 0-4-1c-1.64-1.305-1.64-1.305-3.25-2.875-4.286-3.842-8.867-6.125-14.75-6.125l-1-5h-4c-1.75-1.25-1.75-1.25-3-3v-4l-8-1v2c-2 0-2 0-3.625-1.375C874 604 874 604 874 602l-3.312.688c-3.688.312-3.688.312-5.625-1C864 600 864 600 864 598l-1.728-.61c-2.573-.915-5.141-1.84-7.71-2.765l-2.72-.96-2.588-.938-2.396-.857C845 591 845 591 844 589"/><path fill="#90240a" d="M977 328c1.875 1.5 1.875 1.5 3 3l-3.75-.125c-3.355-.018-5.3.486-8.25 2.125l-3-1-3 2-2 1-1 3c-4.333 3-4.333 3-7 3v2c-2.905 2.042-4.401 3-8 3v2h-2l-2-2-1.625 2.25c-3.7 4.285-7.104 6.782-12.75 7.5L922 356l-1 3-3.25.875c-4.246 1.274-5.794 2.923-8.75 6.125l-3 1-.375 1.938L905 371c-2.25 1.125-2.25 1.125-5 2-4.236 1.444-4.236 1.444-7 5h-2v2l2 1c-2.906 1.257-4.796 2-8 2l1 3c-3.75 1.125-3.75 1.125-6 0l-1 4h-3l.813 3.688c.437 3.546.425 4.002-1.875 7L872 403c-4.041 3.038-4.041 3.038-7 7-1.742 1.035-1.742 1.035-3.875 2.063l-2.117 1.035C857 414 857 414 854 415v2l-3 1 1 5-6 2 10 4c-4.6 1.15-5.783.616-10.078-1.09l-3.516-1.377-3.656-1.47-3.703-1.46q-4.53-1.786-9.047-3.603c-.184-2.336-.184-2.336 0-5a112 112 0 0 1 6-5l1-3c2.063-1.187 2.063-1.187 4-2v-2h5l1-3 5-1v-4h2v2c4.544-1.89 4.544-1.89 7.563-5.625L859 389l2.563-.5L864 388c1.375-2.476 1.375-2.476 2-5h2l.313-2.875C869 377 869 377 872 375h2c1.563-1.1 1.563-1.1 3.125-2.5L880 370l2 1v2h3v-3h3v-4l5-1v-2c6.625-2.875 6.625-2.875 10-4v3h3l1-2h6v-4h2l1-4c4.053-.982 7.839-1.082 12-1v-4h2v-2l7-2v-2c3.788-1.613 7.581-3.214 11.375-4.812l3.215-1.37c18.597-7.815 18.597-7.815 25.41-6.818"/><path fill="#ac2e0c" d="M791 569c5.315.641 9.893 2.33 14.836 4.273l2.54.984q4.002 1.553 7.999 3.118l5.352 2.078q3.788 1.469 7.574 2.946l2.306.9 2.21.865q2.236.854 4.492 1.653C843.9 587.8 843.9 587.8 845 590c1.888.902 1.888.902 4.184 1.656l2.56.91 2.693.934q2.626.914 5.247 1.844l2.36.818C864 597 864 597 866 599v2l1 2 7-1v2l3 1v2h2v-2c5.75-.125 5.75-.125 8 1v4l3 1v2h4l2 5h3c5.603 1.68 9.23 3.66 13.457 7.695 1.626 1.539 1.626 1.539 4.543 2.305l1 2h5v3l3.438.875L930 635l1 2 3 2 1 3.063 1 2.937 3 1-1 4 4-1 1 3 1-3 6 1v2h2l.75 1.938c1.066 2.25 1.066 2.25 3.375 2.812L958 657l-1 2-2-1v4l2 1-1 5 3 1c-5.628 2.801-10.638 5.106-17 5-4.026-2.952-6.108-6.42-8-11v-3l-1.812-.625c-3.061-1.924-3.863-4.063-5.188-7.375v-4h-2l-1 2-1-2-2.125-.312c-3.426-.82-5.394-2.317-8.164-4.422-1.845-1.419-1.845-1.419-4.586-2.891C906 639 906 639 905 636c-2.42-2.753-4.63-4.555-8-6l1-4-6-1 2-1v-2h-5v-2l-2.875-.875C883 618 883 618 881 616l-1.875-.437c-2.58-.683-4.034-1.93-6.125-3.563l-2-.937c-2.498-1.327-4.144-2.942-6-5.063v-2l-4-1v-2l-1.758-.148c-5.446-.522-10.293-1.377-15.242-3.852v-2h-4v-2l-2.602-.434-9.773-1.629-3.21-.535L822 590v-2l-3 1v-4l-1.898-.184-2.477-.254c-.812-.08-1.624-.162-2.46-.246C810 584 810 584 808 583l1-4-2.125.25c-3.843-.334-5.86-1.92-8.875-4.25l-1-2-5 1 1-3z"/><path fill="#eb6a23" d="M547 505c9.16 1.563 17.487 5.172 26.063 8.625l4.646 1.852q5.65 2.252 11.291 4.523v2l7 2-3 1-1 2 4-1-2 6 3 2-1.437 2.75c-1.21 2.514-2.043 4.546-2.563 7.25h-2v2l3 1v4l-4 1 1 3h-3l1 3c-.559 2.262-.559 2.262-1.437 4.688l-.872 2.449L586 567l-3-1-1.242 1.531-1.633 1.969-1.617 1.969L577 573h-2l1 3-4 1 .688 3.313c.312 3.687.312 3.687-.813 5.5C570 587 570 587 567.625 587.875c-2.854 1.025-2.854 1.025-5.187 3.75C560 594 560 594 556 594a224 224 0 0 1-6-1l1 3-2.812 1.5c-3.918 2.692-5.198 5.964-6.188 10.5-.858 5.31-1.448 10.65-2 16h-1c-.145-11.708.289-23.315 1-35h2l1-5h2v-2h2v-2l4-1v-2c3-2 3-2 6-2l.063-2.75c.937-3.25.937-3.25 2.527-4.363q1.908-.949 3.824-1.883c1.877-.954 1.877-.954 2.461-3.629L566 560l1-2h2c.934-3.01 1.044-3.867 0-7l3-1v-5h2a109 109 0 0 0-1-7l-2-1c.602-2.02 1.273-4.021 2-6l2-1-2-2c.375-3.625.375-3.625 1-7l-2-1 1-2h5c-5.41-2.332-8.15-3.197-14-2-2.187-.937-2.187-.937-4-2h-3v-3h3l-13-5z"/><path fill="#af3910" d="M650 544c5.394 1.544 10.751 3.192 16.063 5l2.785.938L671 551l1 3h-3l.438 1.75L670 558l.688 1.875c.82 5.581-3.17 11.307-5.688 16.125h-5v3h-2l-1 6h-2v2l-1.437 1.375c-1.784 1.855-2.132 3.126-2.563 5.625h-4l-1 3a263 263 0 0 1-5 4l-2 3h-3l1 3-3 1-1 9-5 1v2c-1.562 2.125-1.562 2.125-4 4-3.75.25-3.75.25-7 0v3l2 1-1.82.703c-2.709 1.05-5.413 2.11-8.117 3.172l-2.866 1.105-2.724 1.075-2.524.984c-2.121.802-2.121.802-2.949 2.961-2.079.974-2.079.974-4.82 1.988l-3.042 1.136-3.263 1.188-3.294 1.213q-4.786 1.75-9.581 3.475l-2.54.924a532 532 0 0 1-6.21 2.201l-3.422 1.195C559 652 559 652 555 651l12-3 1-5 5-1v2c2.763-.523 5.326-1.109 8-2v-4h2v-3l5-2v-5h6v-2h2v-3l5-1v-3h4l2-6 2.125-.375c3.089-.672 5.946-1.427 8.875-2.625l1-3h3v-3h3l1-3 2-1 .813-3.437L630 593a125 125 0 0 1 5-2c1.372-3.03 1.372-3.03 2-6h4l.875-2.75c2.242-6.478 2.242-6.478 4.625-8.562 2.249-2.53 2.597-5.447 3.5-8.688 1.232-2.722 2.59-5.366 4-8l-2-2 2-2v-3h8l-12-5z"/><path fill="#882008" d="M694 561c6.524 1.196 12.085 3.188 18.105 5.977 3.146 1.112 5.584 1.21 8.895 1.023v2l1.772.687c2.662 1.035 5.32 2.08 7.978 3.125l2.79 1.08 2.694 1.065 2.476.968c2.368 1.111 4.259 2.437 6.29 4.075-6.2 3.264-12.475 5.756-19.062 8.125a1530 1530 0 0 0-27.954 10.496l-3.181 1.227a5196 5196 0 0 0-12.802 4.954 3713 3713 0 0 1-9.083 3.514l-2.762 1.082c-4.383 1.685-8.454 3.069-13.156 3.602 2.381-2.381 4.339-3.002 7.5-4.125l2.969-1.07C670 608 670 608 672 608l-1-3a141 141 0 0 1 5-5h2a331 331 0 0 0 2.438-5c1.562-3 1.562-3 3.562-5v-2l1.313-1.25c2.22-2.303 3.342-4.868 4.687-7.75h-3v-3h4l-1-4h2v-2h2c1.042-4.615 1.042-4.615 0-9"/><path fill="#bb4113" d="M618 532c5.872 1.01 11.29 3.174 16.858 5.238 1.897.701 3.799 1.391 5.7 2.08l3.614 1.334 3.315 1.219C650 543 650 543 651 545c2.158.946 4.352 1.81 6.563 2.625l3.628 1.352L664 550v1l-10-1 1 4-2 1 2 3-1.059 1.504c-3.102 4.632-4.161 7.925-4.941 13.496-2.062 1.438-2.062 1.438-4 2v4h-2l-.437 1.875C642 583 642 583 641 585h-4l-.125 2.813L636 591l-3 1.438-3 1.562c-.979 3.594-.979 3.594-1 7l-3 1-1 2h-3v3h-3l-.062 1.813C618 611 618 611 614.688 612.75 611 614 611 614 607 614l-2 5h-4v3l-5 1v3h-2v2l-5 1-.187 1.875C588 633 588 633 585.438 634.25L583 635l-.062 3.313L582 642c-3.437 2-3.437 2-7 3l-2-1v-2c-2.51.703-2.51.703-5 2l-.312 1.938C567 648 567 648 564.496 649.266l-3.058.984-3.067 1.016L556 652v1h-9v-1l2.438-.375L552 651l1-2h3v-3c5.75-3 5.75-3 8-3l1-5 8 2v-3h3l.813-1.937C578 633 578 633 581 632l1-3h3v-2h2v-2l2.375-.625c2.934-1.182 2.934-1.182 3.938-4.5L594 617l1 2a717 717 0 0 0 3.813-3.25l2.144-1.828c2.106-1.852 2.106-1.852 3.617-4.156L606 608h3v-2l2-1 1-3 5-1 .313-1.812c.785-2.5 1.656-3.563 3.687-5.188h2l.332-2.3.48-3.013.458-2.988c.784-2.898 1.603-3.711 3.73-5.699v-3c1.496-1.43 1.496-1.43 3.438-2.875 2.9-2.288 2.9-2.288 4.312-5.625l.25-2.5a133 133 0 0 1 3-6h2l-.187-3.625c-.03-4.143 1.232-6.72 3.187-10.375-.676-3.186-.676-3.186-3.408-4.259l-3.158-1.221-3.409-1.338-3.587-1.37-3.6-1.404A1420 1420 0 0 0 618 533z"/><path fill="#992b0c" d="M967 332v3h-2v2l-4 4-1 3c-2.635 2.736-3.873 2.994-7.75 3.188L949 347v2h-3l-1 4h-3v2h-2l-.687 1.938L938 359l-2.5.438-2.5.562c-1.375 2.476-1.375 2.476-2 5l-1-2c-4.549 1.743-4.549 1.743-7.125 5.625L922 371a70 70 0 0 1-4 1c-1.284 1.984-1.284 1.984-2 4l-2.312-.125c-2.915-.096-2.915-.096-5.688 2.125l-1.562 2.625c-.475.784-.95 1.567-1.438 2.375h-2v2l-4-1v4l-6 1v5h-2l-.437 2.313c-1.877 3.227-2.598 3.225-6.063 4.187-2.41.626-2.41.626-4.5 1.5-1.375 2.476-1.375 2.476-2 5-2.125 1.313-2.125 1.313-4 2v4l-2-1c-2.977.744-2.977.744-4.562 2.563L866 416h-2l-.762 1.86c-2.064 3.568-5.47 4.757-9.238 6.14-3 .25-3 .25-5 0l3-1-2-6h4v-2c3.42-2.93 6.442-5 11-5l1-3h2l1-3c4.457-4 4.457-4 7-4v-10l3-1 1-3 5-1v-2l6-3v-2l2-1 2-3c2.567-.884 5.14-1.455 7.785-2.059.731-.31 1.462-.62 2.215-.941.734-1.964.734-1.964 1-4 2.063-1.75 2.063-1.75 4-3l-1-2c6.417-2.894 6.417-2.894 9.75-3.5 2.308-.294 2.308-.294 3.625-1.937 2.475-2.38 5.346-2.715 8.625-3.563 3.767-1.085 3.767-1.085 6.188-3.937L938 347l2-3 2 1v3h2v-2c2.905-2.042 4.401-3 8-3v-2l3.438-1.75c2.91-1.504 2.91-1.504 4.187-4.375L960 333c4.333-2.333 4.333-2.333 7-1"/><path fill="#e44f18" d="M991 532h1q.233 18.334.443 36.67.097 8.516.205 17.032.104 8.238.195 16.476.036 3.123.078 6.246c.494 36.995.494 36.995-4.921 44.576-2.137 1.191-2.137 1.191-4 2l.313-3.687c-.04-3.215-.213-4.163-2.063-6.938-3.655-3.116-8.198-5.006-12.508-7.043-3.591-1.744-5.503-2.974-7.742-6.332l1-2c2.563-.625 2.563-.625 5-1l2-6h2v-3h2l2-7h-2l-1 3v-4l4-2v-5l2-1-.062-3.875c-.063-3.875-.063-3.875 1.062-6.125h2c1.16-4.256.762-7.684 0-12l3 1 1-3h2c-.095-1.123-.19-2.246-.29-3.402-.608-7.921-1.09-14.9 1.29-22.598h1z"/><path fill="#cd5019" d="M989 344h1q.037 6.671.055 13.342.008 2.267.02 4.533c.013 2.18.018 4.36.023 6.54l.016 3.966c-.104 3.31-.48 6.375-1.114 9.619l-4-1v3h-3v-2h-2l-.937 1.875L977 388h-3l-1 3c-3.437 4.813-3.437 4.813-7 6l-2-1 .75 2.75c.25 3.25.25 3.25-1.562 5.625C961 406 961 406 959 406l-.625 3.875c-.54 2.227-.54 2.227-1.375 4.125-3 1.25-3 1.25-6 2-1.3 1.934-1.3 1.934-2 4l-2 2-.5 2.063L946 426l-2 1v3h-2l-1 4h-2l1 4-3 1c-.73 1.81-.73 1.81-1.062 3.938-.736 3.86-.736 3.86-2.938 6.062v4l-4-1-1 3c-2.763-.523-5.326-1.109-8-2 .088-2.063.196-4.126.313-6.187l.175-3.481c.539-3.507 1.547-5.425 3.512-8.332.696-2.191.696-2.191 1-4h2l1-2 3 1v-3l2-2v-3h2l.375-1.937L936 418l2-1 2 1v-2l-2-1 1.438-1.375c1.652-1.558 1.652-1.558 2.562-3.625h3l.875-2.312C947 405 947 405 949 402l3-1 1-2c3.462-3 3.462-3 7-3v-6l3-1c1.225-3.008 1.225-3.008 2-6h3l1-3c3.59-4.33 6.509-5.881 12-7h3l4-1z"/><path fill="#f47327" d="m580 518-6 2c-.18 3.947-.094 6.598 2 10l-3 1v7q.483 3.502 1 7h-2l.625 2.375L573 550l-2 2-2-1v2l2 1c-1.509 3.233-2.706 5.353-6 7v2l2 1-2.375 1.875c-2.593 2.024-2.593 2.024-4.625 4.125l-1 1-.687 1.938c-1.87 2.939-4.038 3.208-7.313 4.062l1 3h-5v2h-2v2l-2 1c-.652 2.025-.652 2.025-1 4h-2v19h-1c-.03-3.625-.047-7.25-.062-10.875l-.026-3.07c-.02-6.418.305-12.685 1.088-19.055h3l.375-1.75c.646-2.324 1.352-4.2 2.625-6.25l3-1v-3l1.457-1.395c2.005-2.085 2.024-3.445 2.23-6.293l.2-2.449L553 551l3-1c.149-4.675.149-4.675-.625-9.25L555 539l2-3 2 1 .313-1.75c.802-2.628 1.857-4.21 3.687-6.25l3-1-1-2-3-1c.313-1.937.313-1.937 1-4l3-1-1.937-.812C562 518 562 518 561 515c6.533-2.45 13.093.17 19 3"/><path fill="#ee6a23" d="M989 413h1v67c-10.125-1.125-10.125-1.125-14.562-3.062l-2.567-1.098L971 475v-2h-2l-2-6h-2l1-4h2l-.14-1.863c-.11-2.434-.152-4.716.14-7.137 2-2.062 2-2.062 4-3l-3-3 1-3c2.063-.687 2.063-.687 4-1v-5h2v-5h3l-1 2h2l.188-3.25c.812-3.75.812-3.75 3.375-6.187L986 425h-2v-2l4 1z"/><path fill="#95270a" d="M673 553c5.138.64 9.588 2.197 14.375 4.063l2.23.853q2.7 1.036 5.395 2.084v2l3 2h-3l1 4h-2v2h-2l-1 6h-4v3h3c-1.059 3.403-2.009 6.014-4 9h-2l1 3-2 3h-2l-.187 2.313c-.813 2.687-.813 2.687-3.25 4.5C675 602 675 602 673 602c-.03.933-.062 1.867-.094 2.828L672 608c-2.906 1.61-2.906 1.61-6.5 2.75-2.18.71-4.35 1.453-6.5 2.25l-1 2c-2.1.955-2.1.955-4.914 1.96l-3.203 1.164-3.508 1.251a3903 3903 0 0 0-7.352 2.668l-1.946.708c-4.917 1.798-9.795 3.687-14.663 5.612l-2.135.842a1363 1363 0 0 0-8.342 3.312 925 925 0 0 1-5.812 2.307l-3.367 1.347C600 637 600 637 597 636l38-15 1-9c2.063-2.562 2.063-2.562 4-4l2 1 1-5 5 1 1 4h-3l1 7 5-2v-2l3-1c1.219-2.504 1.219-2.504 2-5h2v-2h2v-2h2l1-4h3l.438-1.875C668 594 668 594 669 592h2l.375-3.25c.542-3.25 1.094-4.958 2.625-7.75l.938-2.937c1.039-2.996 2.345-5.409 4.062-8.063l2 1 2-1v-2h-2a295 295 0 0 1 .875-3.937l.492-2.215C683 560 683 560 685 559l-12-5z"/><path fill="#b3310f" d="M571 328c1.433 5.351 2.41 10.492 3 16l3-1c2 2 2 2 2 4l2 2a70 70 0 0 1-1 4l1 2h3c2 3 2 3 2 6h2v2h7l2-4v2l2 1v2l1 3 3 1 3-3 1 2-1 3 7 2c-4.146 1.382-6.857-.17-10.754-1.684l-2.346-.888q-2.475-.94-4.946-1.895c-2.451-.945-4.908-1.876-7.366-2.804-8.198-3.118-16.325-6.385-24.365-9.89l-2.196-.94c-5.342-2.37-10.885-5.132-14.527-9.836-.723-2.982-.313-5.124.5-8.063 1.563-1.875 1.563-1.875 3-3l-1-2c6.772-5.45 13.889-3.96 22-3"/><path fill="#791606" d="m856 375-1 3c-2.062.688-2.062.688-4 1l1 3-6 4-1-2-3-1-1 3h-3l-.312 2.375C837 391 837 391 834 393l-1 2-3.5.938L826 397l-1 3-4-1v3l-1.937.313L817 403l-1 3h-3q-3.005.47-6 1v2c-7.86.626-14.835-.61-22-4l-2-3q11.917-4.814 23.837-9.623l11.07-4.47a25391 25391 0 0 1 14.765-5.96q4.605-1.862 9.218-3.704a516 516 0 0 0 5.671-2.302c5.104-2.053 5.104-2.053 8.439-.941"/><path fill="#7b1806" d="m713 571 3 1 3.57-.676c5.408-.768 9.463 1.267 14.305 3.489l2.586 1.119c6.205 2.734 6.205 2.734 8.539 5.068-6.69 3.553-13.57 6.175-20.687 8.75-10.354 3.773-10.354 3.773-20.645 7.715l-2.913 1.14q-2.702 1.062-5.394 2.146l-2.423.948-2.098.839C689 603 689 603 686 602l3.375-1.187c2.945-1.238 3.484-1.55 5.063-4.5L695 594h3v-4l7-3-1-2c.453-1.875.453-1.875 1.25-4l.766-2.125C707 577 707 577 710 575l1-3z"/><path fill="#e96222" d="M541 341c1 3 1 3 .077 5.09-1.543 4.168-1.34 8.064-1.304 12.474v2.898c0 3.155.016 6.31.032 9.464l.008 6.57c.008 5.759.028 11.518.05 17.276.02 5.879.03 11.758.04 17.636.02 11.53.055 23.061.097 34.592l4 2v2l3-1c1.075 2.652 2.095 5.284 3 8l3 2 1 3c.93 2.382 1.856 4.713 3 7l-3 3-2-2c-2.57-.648-2.57-.648-5-1l5 5-2 1c-6.294-4.537-10.369-10.325-12-18-.124-2.986-.195-5.95-.221-8.937l-.035-2.736c-.037-2.99-.066-5.981-.096-8.972l-.07-6.264q-.072-6.58-.136-13.157a7590 7590 0 0 0-.185-16.75q-.074-6.48-.139-12.96-.031-3.082-.07-6.167c-.395-33.308-.395-33.308 3.952-41.057"/><path fill="#d04214" d="M991 532h1q.233 18.334.443 36.67.097 8.516.205 17.032.104 8.238.195 16.476.036 3.123.078 6.246c.486 36.378.486 36.378-4.921 44.576l-1-2c.71-2.075 1.603-4.028 2.504-6.027L990 643l-2-3-2 2-2-1v-8c-4.324 2.026-4.324 2.026-8 5-.687-3.312-.687-3.312-1-7 1.438-1.937 1.438-1.937 3-3l-2-1 3-1c1.185-2.433 2-4.28 2-7l6-1v-3h2c-.095-.699-.19-1.397-.29-2.117-.11-.91-.22-1.82-.335-2.758l-.352-2.742L988 605l2-2c.333-3.076.333-3.076.319-6.745l.03-2.099c.031-2.294.048-4.588.065-6.883q.028-2.384.059-4.766c.051-4.186.09-8.372.128-12.557.04-4.27.091-8.54.141-12.81q.144-12.57.258-25.14"/><path fill="#741304" d="m836 383-4 4h-2c-2.784 1.392-2.979 3.156-4 6l-2.23.043c-6.41.222-6.41.222-11.77 3.457l-2 2.5-3 1 1 4-5-1v3l-3-1c-2.143.39-2.143.39-4 1l4 2c-3.792 1.264-5.314.507-9.062-.75l-3.223-1.047C785 405 785 405 783 402q10.59-4.319 21.198-8.6 3.609-1.46 7.213-2.93c3.45-1.407 6.903-2.8 10.359-4.193l3.267-1.341 3.033-1.214 2.671-1.083C833 382 833 382 836 383"/><path fill="#fe8530" d="M643 507c2.188 1.313 2.188 1.313 4 3v2l2.875.438C653 513 653 513 655 514v2l2.688-.687c3.93-.371 5.177.423 8.312 2.687l2 1v2a85 85 0 0 0 7-2l-1-3 5 1 1 5v-3l9 1v-2l4 1 1 5 3 1 1 8c-4.698-.613-8.707-1.906-13.102-3.66l-2.032-.806q-3.249-1.292-6.491-2.596l-4.459-1.775q-5.466-2.176-10.926-4.366c-2.87-1.15-5.74-2.293-8.611-3.438Q645.686 513.69 639 511l1-3z"/><path fill="#7c1705" d="m719 573 3 1a589 589 0 0 1-.875 4.75l-.492 2.672c-.601 2.447-1.413 4.384-2.633 6.578 5.309-.582 5.309-.582 10-3 .363-1.977.363-1.977.188-4.125L728 577c1.875-.625 1.875-.625 4-1l2 2 3.375-.062c3.829.066 4.934.479 7.625 3.062-6.936 3.7-14.119 6.384-21.5 9.063l-7.094 2.597-3.355 1.215c-2.59.955-5.147 1.966-7.707 2.996C702 598 702 598 699 597l2-2 2-3 2.563.625c3.973.433 6.683-.349 10.437-1.625v-3h-3v-4l2-1 .438-3.375c.551-3.556.766-4.559 3.562-6.625"/><path fill="#ce551e" d="M991 360h1v123l-8-3c4-1 4-1 6 0l-.007-3.483q-.03-16.412-.045-32.824-.007-8.433-.023-16.867-.016-8.17-.02-16.34-.003-3.084-.01-6.17c-.039-14.797.377-29.537 1.105-44.316"/><path fill="#ab2b0d" d="m554 335 3 9h3l2-3c1.478 2.957 1.06 5.742 1 9l5 2-1 2 6 2v-2l-2-1v-2l5 1 .063 2.813c.565 3.194.565 3.194 2.562 4.253 1.757.734 3.565 1.342 5.375 1.934-3.438 1.146-4.01.878-7.246-.406l-2.522-.995-2.67-1.099-2.718-1.109C549.421 349.3 549.421 349.3 546 342c.313-3.312.313-3.312 1-6 4.75-1 4.75-1 7-1"/><path fill="#961e07" d="M844 589c3.765.659 7.198 1.7 10.785 3.012l3.497 1.277 3.78 1.399 1.941.715a2273 2273 0 0 1 32.32 12.223q2.425.936 4.85 1.867 3.41 1.31 6.811 2.636l2.067.79c2.808 1.102 4.792 1.924 6.949 4.081l-6 1v-3l-4-1v2l-1.582-.55c-6.075-2.076-12.211-3.814-18.418-5.45v-4l-8-1v2c-2 0-2 0-3.625-1.375C874 604 874 604 874 602l-3.312.688c-3.688.312-3.688.312-5.625-1C864 600 864 600 864 598l-1.728-.61c-2.573-.915-5.141-1.84-7.71-2.765l-2.72-.96-2.588-.938-2.396-.857C845 591 845 591 844 589"/><path fill="#fc8530" d="m544 651 2 1c4.386.264 8.694.272 13-.625l2-.375c2 2 2 2 2.063 5l-.063 3 1 2 3 1v2l-6-2 8 4c-3.78 1.26-5.215.205-8.658-1.512l-2.154-1.113-2.12-1.043c-4.547-2.306-8.398-4.771-12.068-8.332z"/><path fill="#eb7028" d="M643 507c2.188 1.313 2.188 1.313 4 3v2l2.875.438C653 513 653 513 655 514v2l2.688-.687c3.93-.371 5.177.423 8.312 2.687l2 1v2a85 85 0 0 0 7-2l-1-3 5 1 .313 2.313c.743 2.906 1.536 3.723 3.687 5.687v2l2 1c-4.91-.742-9.343-2.532-13.95-4.309l-2.587-.99q-2.697-1.034-5.393-2.075a2266 2266 0 0 0-8.275-3.167q-2.622-1.008-5.244-2.018l-2.506-.953-2.317-.9-2.04-.785C641 512 641 512 639 510c1-2 1-2 4-3"/><path fill="#f47529" d="M776 436c9.16 1.563 17.487 5.172 26.063 8.625l4.646 1.852q5.65 2.252 11.291 4.523c-3.196 1.065-5.657 1.074-9 1v-3l-11-1v-2q-2.156-.253-4.312-.5l-2.426-.281c-2.381-.267-2.381-.267-5.262-.219l-1 3-4-1 1-2c-.959-2.33-.959-2.33-4-4l3-2-5-2z"/><path fill="#ce4716" d="m867 699 2.188 1.5c2.96 1.58 4.525 1.782 7.812 1.5-2.148 2.148-3.605 2.787-6.402 3.895l-2.761 1.102-2.99 1.171-3.063 1.21q-3.21 1.263-6.423 2.518a2099 2099 0 0 0-9.843 3.891q-3.116 1.224-6.233 2.443l-2.983 1.19-2.77 1.073-2.438.957C829 722 829 722 826 721l17-7-3-1 1-5c3.875-1 3.875-1 5-1a125 125 0 0 1 3 4c5.614-1.564 10.868-3.164 16-6l-1-4z"/><path fill="#d74c1a" d="M958 505c5.082.61 9.3 2.143 13.938 4.188l2.14.935c5.079 2.304 9 4.857 12.922 8.877l-1 2-5-1-1 2h-3l1-6-3.687.563c-6.17.731-6.17.731-9.313-.563-1.312-2.562-1.312-2.562-2-5l5-1-10-4z"/><path fill="#fe8530" d="M741 423c4.603.616 8.6 1.837 12.93 3.504l1.925.735q3.012 1.156 6.02 2.324l4.11 1.576Q770.994 433.06 776 435c-4.265 1.422-7.2-.346-11.187-1.937l-2.272-.881Q759.767 431.1 757 430l-2 5-8 1v-8l-6-1z"/><path fill="#d64d18" d="m824 711 1.313 1.375c1.795 1.825 1.795 1.825 4.687 3.625l-1 2 9-2c-2.35 2.35-3.957 2.731-7.125 3.625-.91.26-1.82.52-2.758.79L826 721v2q-6.03 2.512-12.06 5.017l-4.097 1.705q-2.956 1.231-5.913 2.458l-3.587 1.491c-9.54 3.792-9.54 3.792-13.343 2.329l2.06-.763q4.69-1.74 9.378-3.487l3.24-1.2c6.208-2.315 12.31-4.762 18.322-7.55h-2l2-4v2h2l-.125-2.187c.134-3.02.877-5.082 2.125-7.813"/><path fill="#650e03" d="M729 576h3l2 2 3.375-.062c3.829.066 4.934.479 7.625 3.062-4.966 2.682-10.016 4.867-15.312 6.813l-3.614 1.332C723 590 723 590 720 589l8-4-.062-3.937A59 59 0 0 1 728 577z"/><path fill="#e86423" d="m563 475 1 5 12 2 1 3 3 1 .875-1.937C582 482 582 482 584 481l1 8 1.941.55c5.203 1.513 10.13 3.2 15.059 5.45-4.172 1.39-6.882-.226-10.781-1.79l-2.33-.91a993 993 0 0 1-4.892-1.931c-2.456-.978-4.917-1.942-7.38-2.904-8.313-3.263-16.547-6.63-24.617-10.465 3-1 3-1 5-.437l2 .437c3-2 3-2 4-2"/><path fill="#f47a2b" d="m706 526 2 1v4l2.875.375C714 532 714 532 716 534c.398 1.988.738 3.99 1 6l7 2c-3.734 1.245-4.736.576-8.324-.871l-3.115-1.24-3.249-1.327-3.283-1.314Q702.01 535.637 698 534c2.647-1.46 3.894-2 7-2l-1-3z"/><path fill="#f27129" d="m739 254-1.937.313L735 255l-1 3-3 .938-3 1.062c-.733 2.018-.733 2.018-1 4l-1.687-.07c-5.49-.13-10.042.537-15.313 2.07l1 3c-3.75 2-3.75 2-6 2v-3l-3-1q7.173-3.036 14.362-6.036 2.445-1.024 4.885-2.058c2.337-.99 4.68-1.966 7.023-2.941l2.206-.944c5.182-2.135 5.182-2.135 8.524-1.021"/><path fill="#f57b2c" d="M736 539c2 1 2 1 3 3l2 .938c2 1.062 2 1.062 3 4.062l3 1c1.688 1.438 1.688 1.438 3 3v2l5 1c-3.861 1.287-5.155.437-8.91-1.02-1.155-.445-2.309-.89-3.498-1.35l-3.654-1.442-3.667-1.409c-8.997-3.505-8.997-3.505-11.271-5.779l11 1z"/><path fill="#d7561c" d="m751 729 3 1v8l19 1v1c-13.73.41-26.114-1.138-39-6 3-1 3-1 5-1l3-1c2-.04 4-.043 6 0h1z"/><path fill="#c13c12" d="m890 681 1 2c3.03.658 3.03.658 6 1l-1 3c.875 2.167.875 2.167 2 4h-7l1 3 2.082-.691 2.73-.871 2.708-.88C902 691 902 691 905 692a2189 2189 0 0 1-12.312 5.063l-3.538 1.47-3.388 1.377-3.127 1.286C880 702 880 702 877 701l12-5-.035-3.027-.028-3.91-.035-3.903C889 682 889 682 890 681"/><path fill="#f26521" d="M850 464c5.517.634 10.267 2.506 15.375 4.563l2.52.998Q870.95 470.77 874 472l-2 2c-.167 2.584-.167 2.584 0 5l-2-1-3 3-3-9h-2v-2l-3 1c-2.687-.437-2.687-.437-5-1l1-3-5-2z"/><path fill="#ca3c10" d="m653 388 2.336.438 3.039.562 3.023.563c2.491.492 2.491.492 4.602.437v3l1.863-.219 2.45-.281 2.425-.281C675 392 675 392 678 392v3l4 1v2l7 3c-4.01 1.336-6.487-.01-10.258-1.457l-2.132-.797a796 796 0 0 1-4.453-1.688 846 846 0 0 0-6.84-2.568q-2.163-.816-4.325-1.635l-2.077-.773c-4.8-1.851-4.8-1.851-5.915-4.082"/><path fill="#e76d29" d="M785 249v1l-2.75-.032q-5.083-.05-10.165-.078-2.194-.015-4.388-.04a854 854 0 0 0-6.33-.045l-3.84-.032c-3.517.226-6.256.955-9.527 2.227l4 1v2l3-1 1 2-6 2v-2h-4l-1-3h-6c2.139-2.139 3.133-2.427 6-3l-1-2 3.938.063c3.233.005 6.354-.161 9.562-.563 9.42-1.119 18.147.01 27.5 1.5"/><path fill="#6e1004" d="M811 393h-2l-1 6-4.937.5-2.778.281C798 400 798 400 797 400l-1 3v-2h-3l-1 2-5-1v2l-4-1c4.374-2.916 9.153-4.687 14-6.687 1.01-.43 2.021-.858 3.063-1.3l2.937-1.212 2.688-1.12C808 392 808 392 811 393"/><path fill="#f37328" d="M605 490c3 2 3 2 3.688 4.125L609 496h2l1-2 4 2v5l7 2c-3.44 1.147-4.003.871-7.23-.434l-2.432-.966-2.525-1.038-2.561-1.025A856 856 0 0 1 602 497c.375-2.937.375-2.937 1-6z"/><path fill="#831b07" d="M678 598c2 2 2 2 2 5h5c-2.072 4.144-8.725 5.146-12.875 6.688l-3.379 1.298-3.238 1.213-2.98 1.12C660 614 660 614 657 613q3.185-1.255 6.375-2.5l3.586-1.406C670 608 670 608 672 608l-1-3a141 141 0 0 1 5-5h2z"/><path fill="#fc7328" d="M818 452c5.76.606 10.72 2.757 16 5-3.133 1.044-3.99.934-7 0l-1 3-3 3-1 3c-2.062.688-2.062.688-4 1l1-7-2-1v-2h3v-2h3l-5-2z"/><path fill="#7e1b07" d="M879 366v3h-2v2l-2 1c-.656 2.527-.656 2.527-1 5l-5-1c0-2 0-2 2-4l1-2-7 1v3h-8c1.797-3.594 6.27-4.301 9.875-5.687l2.512-1.01 2.418-.94 2.218-.866C876 365 876 365 879 366"/><path fill="#8d1a07" d="M934 623c7.065 1.983 13.837 4.407 20.625 7.188l2.754 1.115q3.313 1.342 6.621 2.697c-7 2.333-7 2.333-10.25 1.25C952 634 952 634 951 631l-2.875.125C945 631 945 631 943 629c-2.667-1.333-4.167-.671-7 0z"/><path fill="#df6223" d="M547 505c7.548 1.377 14.415 3.9 21.532 6.74 1.923.767 3.85 1.52 5.779 2.272 9.428 3.727 9.428 3.727 11.689 5.988-4.041-.425-7.312-1.51-11-3.125-4.178-1.757-6.534-1.938-11-.875-2.187-.937-2.187-.937-4-2h-3v-3h3l-13-5z"/><path fill="#dc541c" d="M897 482c4.563.617 8.557 1.806 12.86 3.434l1.91.72q1.983.752 3.963 1.511c2.022.774 4.048 1.537 6.076 2.298l3.863 1.47 3.534 1.346C932 494 932 494 934 496c-12.257-2.42-23.45-6.316-35-11v-2z"/><path fill="#d34112" d="m719 409 3 1v2h3l1 3 6 1-1-3h5v7l2 1c-4.97-.626-9.211-2.066-13.812-3.937l-2.061-.803c-5.002-2.01-5.002-2.01-6.127-4.26z"/><path fill="#ab2f0c" d="M791 569c5.882.616 10.961 2.827 16.375 5.063l2.809 1.142q3.411 1.39 6.816 2.795c-3 1-3 1-6 1v-2h-2v2c-4.813.566-7.245-1.098-11-4l-1-2-5 1 1-3z"/><path fill="#b52d0c" d="m596 359 1 2 2 1v2l1 3 3 1 3-3 1 2-1 3 7 2c-3.74 1.247-4.87.567-8.508-.8l-3.238-1.214-3.379-1.298-3.402-1.264c-8.342-3.162-8.342-3.162-9.473-5.424l10 1z"/><path fill="#7e1a07" d="m856 375-1 3c-2.062.688-2.062.688-4 1l1 3-6 4-1-3 2-2-10 1c3.181-3.181 5.35-4.161 9.5-5.75l3.469-1.36C853 374 853 374 856 375"/><path fill="#95280c" d="m959 334-1 2c-3.062.625-3.062.625-6 1v3l-2.312.625c-3.51 1.796-4.214 3.806-5.688 7.375h-2v-4h2v-2h-7c3.48-2.955 7.364-4.582 11.563-6.25l2.037-.852c5.035-2.02 5.035-2.02 8.4-.898"/><path fill="#e67a2e" d="m544 651 2 1c2.374.071 4.75.084 7.125.063l3.883-.028L560 652l-1 2c-2.314.73-4.648 1.401-7 2 .58 1.999.58 1.999 2 4 2.678 1.089 2.678 1.089 6 2 3.027 1.274 6.014 2.633 9 4-3.78 1.26-5.215.205-8.658-1.512l-2.154-1.113-2.12-1.043c-4.547-2.306-8.398-4.771-12.068-8.332z"/><path fill="#ad2c0b" d="M589 641a5033 5033 0 0 1-11.062 4.375l-3.147 1.25c-14.484 5.702-14.484 5.702-19.791 4.375l12-3 1-5 5-1v2c3.99-.623 7.438-1.91 11.133-3.477C586 640 586 640 589 641"/><path fill="#f27529" d="m645 688 3 2-1 5c3.447 2.095 3.447 2.095 7 4v-3l3 1v2l-2 1 1 2c-4.176-.684-7.88-2.014-11.812-3.562l-3.52-1.38L638 696c3-1 3-1 6 0l-1-7z"/><path fill="#f47b2c" d="m691 523 6 1-.062 2.25c.055 2.455.369 4.411 1.062 6.75-4.847-.591-8.607-1.98-13-4l1-3 5-1z"/><path fill="#c24014" d="m867 699 2.188 1.5c2.96 1.58 4.525 1.782 7.812 1.5-3.595 3.595-8.76 4.859-13.437 6.688l-3.221 1.298-3.088 1.213-2.834 1.12C852 713 852 713 849 712l17-7h-2v-4z"/><path fill="#8a1907" d="M964 635c4.072.63 7.369 1.938 11.063 3.75l3.097 1.484c3.085 1.919 4.844 3.745 6.84 6.766-.25 2.313-.25 2.313-1 4l-2-3h-2v-3l-1.937-.312L976 644l-1-3-2-1-1 3-5-2 3-2-6-3z"/><path fill="#ee6724" d="m539 458 1 3h2l1 4c3.041-1.67 3.041-1.67 4-4h2l-1 9h-2l6 5-2 1c-5.252-3.786-8.555-7.953-11-14z"/><path fill="#fa8e33" d="m637 624-3 2 3 2c-2.622 2.154-4.644 3.4-8 4v-2c-3.325-1.108-5.622-.845-9 0 2.467-2.9 4.947-3.97 8.5-5.25l2.906-1.078C634 623 634 623 637 624"/><path fill="#981f08" d="M818 579c8.617 2.311 16.767 5.608 25 9-3.195 1.065-3.866.964-6.937.063-2.98-.868-4.829-1.063-8.063-1.063l-3-1v-2l-1.812-.25c-2.79-.956-3.533-2.379-5.188-4.75"/><path fill="#ec7027" d="M792 442c5.882.616 10.961 2.827 16.375 5.063l2.809 1.142q3.411 1.39 6.816 2.795c-3.196 1.065-5.657 1.074-9 1v-3l-11-1v-2l-4-1v-2z"/><path fill="#f9812f" d="M914 301c4.567.7 8.57 2.313 12.813 4.063l2.1.853q2.545 1.037 5.087 2.084l-1.937.313L930 309l-1 3-6-2v2l-3-1c1.964-1.506 3.783-2.891 6-4l-6 1v-3h-2v-2z"/><path fill="#d74b19" d="M987 521c3.81 2.77 4.068 6.629 5 11l-4 2-1-2-3-1-1 4h-2l-2 2-1-3 1-2h2v-2h3l1-2c2.063-.625 2.063-.625 4-1z"/><path fill="#eb5d1e" d="m774 727 3 1-.562 1.813c-.659 2.351-.659 2.351.562 5.187l10 2c-3.744 1.872-4.84 2.24-8.75 2.125l-2.422-.055L774 739v-1l-14-1v-1l14-1-1-5h2z"/><path fill="#ee772b" d="M934 309c4.567.7 8.57 2.313 12.813 4.063l2.1.853q2.545 1.037 5.087 2.084c-1.875 1.063-1.875 1.063-4 2l-2-1v-2l-3 1 .07 2.117.055 2.758.07 2.742C945 326 945 326 943 328c-2.509-5.645-2.088-9.258 0-15l-9-3z"/><path fill="#e66a26" d="M747 425c4.136.579 7.741 1.52 11.617 3.066l3.086 1.221 3.172 1.276 3.242 1.287q3.944 1.567 7.883 3.15c-4 1.333-5.424.204-9.25-1.437-5.242-2.212-5.242-2.212-10.812-2.688-2.938.125-2.938.125-5.25-1.187C749 428 749 428 747 425"/><path fill="#fb9234" d="M861 363h4l1 4h-4l1 4a1123 1123 0 0 1-8.812 3.563l-2.526 1.037-2.432.966-2.237.905C845 378 845 378 842 377l18-7-1-3c.938-2.187.938-2.187 2-4"/><path fill="#f6822c" d="m695 602-4 1v4l-2 3-5-1 4-1v-2l-2.3.691-3.013.871-2.988.88C677 609 677 609 674 608c2.931-1.203 5.871-2.385 8.813-3.562l2.525-1.038 2.432-.966 2.237-.905C692 601 692 601 695 602"/><path fill="#f07027" d="m764 555-1 2 4 1v-2l7-1 1 3h-2l-1 2c-2.869 1.36-4.159.951-7.234.004l-3.516-1.442-3.547-1.433L755 556c3.475-1.946 5.125-2.076 9-1"/><path fill="#ea782d" d="M576 670q2.688.173 5.375.375l3.023.21C587 671 587 671 589 673a221 221 0 0 0 7 3v2l2 1c-4.933-.702-9.26-2.635-13.812-4.562l-2.39-.999q-2.9-1.214-5.798-2.439z"/><path fill="#cc521a" d="M597 524c5.025.618 9.247 2.13 13.875 4.063l2.086.853q2.522 1.036 5.039 2.084c-3.937 1.312-6.125.243-10-1v6l-3-1c-1.187-3.062-1.187-3.062-2-6l1-1-7-3z"/><path fill="#f47c2d" d="m674 516 5 1 .313 2.313c.743 2.906 1.536 3.723 3.687 5.687v2l2 1c-3.55-.609-6.835-1.241-10-3-1.075-3.143-1-5.644-1-9"/><path fill="#d7591e" d="m966 466 2 1v3l2 1-1 2 2 1c-4.176-.684-7.88-2.014-11.812-3.562l-3.52-1.38L953 468c3.297-1.099 4.405-.871 7.688-.062l2.449.59L965 469z"/><path fill="#eb6623" d="m828 458 2.813.563c3.2.678 3.2.678 6.187-.563 3.137.996 3.137.996 6.688 2.438l3.574 1.433L850 463c-3.23 1.077-4.13.927-7.312.125-3.55-.858-7.076-1.57-10.688-2.125v2l-4-1z"/><path fill="#9f2109" d="m557 345 .438 2.438L558 350c2.967 1.86 2.967 1.86 6 3-3 1-3 1-5.883-.328l-3.242-1.922-3.258-1.89C549 347 549 347 548 344c3.584-1.327 5.718-.951 9 1"/><path fill="#b63b12" d="M765 575h-2l1 4h-2l-1 3-3-2c-2.754-.025-2.754-.025-5.687.375l-3.012.336L747 581c2.565-2.565 5.06-3.374 8.438-4.687l3.496-1.387C762 574 762 574 765 575"/><path fill="#f1782b" d="M643 507c2.188 1.313 2.188 1.313 4 3v2l2.875.438C653 513 653 513 655 514v2c-5.76-.606-10.72-2.757-16-5l1-3z"/><path fill="#e86927" d="m548 332 3 1-2.062 2.063c-2.327 2.883-2.327 2.883-1.688 6.75L548 345l-4 1c-1.45-2.304-2.008-3.689-1.937-6.437 1.24-3.392 3.28-5.178 5.937-7.563"/><path fill="#a62208" d="m571 351 5 1 .063 2.813c.565 3.194.565 3.194 2.562 4.253 1.757.734 3.565 1.342 5.375 1.934-4.145 1.382-6.783-.213-10.625-1.812l-2.102-.83c-5.141-2.094-5.141-2.094-6.273-4.358l8 2v-2l-2-1z"/><path fill="#b03410" d="M910 682h2l1 2c5.578.125 5.578.125 11-1-2.63 3.195-5.689 4.29-9.5 5.75l-3.469 1.36C908 691 908 691 905 690l6-3z"/><path fill="#cf4417" d="m593 315-1 5h-13c3.012-2.26 4.779-3.503 8.125-4.75l2.07-.797C591 314 591 314 593 315"/><path fill="#e45f21" d="M850 464c4.49.587 8.225 1.764 12.375 3.563l3.21 1.378L868 470v1c-9.41.185-9.41.185-14-1l1-3-5-2z"/><path fill="#dc541c" d="M779 398v2h3l1 3c-2.812 1.563-2.812 1.563-6 3l-3-1 5-2c-2.647-1.46-3.894-2-7-2v-3c4.75-1.125 4.75-1.125 7 0"/><path fill="#ec7128" d="m741 545 1 2 2.375.438c2.889.619 3.861 1.242 5.625 3.562v2l5 1c-4.176 1.392-6.834-.293-10.687-1.937l-2.127-.881c-1.733-.72-3.46-1.45-5.186-2.182l4-1z"/><path fill="#cd3d10" d="M707 403c4.419 1.35 6.343 3.261 9 7l-1 2c-4.565-.543-7.973-1.795-12-4l2-1 3 1z"/><path fill="#ec581e" d="M980 641c2.468 1.152 4.048 2.048 6 4 2.108-.319 2.108-.319 4-1-.531 4.515-2.366 7.347-5 11-1-2-1-2-.812-4.75-.236-4.082-1.747-6.046-4.188-9.25"/><path fill="#640e04" d="m717 590 2 1c-6.617 3.24-12.738 5.69-20 7l4-6 2.5.688c4.018.358 6.163-.474 9.766-2.094z"/><path fill="#ee7128" d="M781 560h2l.875 1.875c1.062 2.258 1.062 2.258 3.125 4.125-6.003.632-10.634-1.625-16-4 3.197-1.066 5.66-1 9-1z"/><path fill="#fd9837" d="M699 407c7.608 2.07 14.773 4.858 22 8l-3 2v-2h-9l-1-3c-2.091-1.24-2.091-1.24-4.562-2.187l-2.504-1.043L699 408z"/><path fill="#4c0801" d="m801 397-1.937 1.313c-2.33 1.6-2.33 1.6-3.063 4.687v-2h-3l-1 2-5-1v2l-4-1c2.946-1.964 5.75-3.298 9-4.687l3.188-1.387C798 396 798 396 801 397"/><path fill="#721104" d="m937 343-7 2v2a902 902 0 0 1-6.375 2.063l-3.586 1.16C917 351 917 351 915 350q3.093-1.44 6.188-2.875l3.48-1.617c8.598-3.891 8.598-3.891 12.332-2.508"/><path fill="#f99a39" d="M601 638a882 882 0 0 1-7.187 3.5l-2.042 1.012c-3.734 1.785-6.529 2.95-10.771 2.488 2.694-3.367 6.015-4.339 10-5.75l3.75-1.36C598 637 598 637 601 638"/><path fill="#e76322" d="m717 263-7 3 1 3c-3.75 2-3.75 2-6 2v-3l-3-1a597 597 0 0 1 5.813-2.562l3.269-1.442C714 262 714 262 717 263"/><path fill="#f99133" d="m653 618-7 2 1 4-9-1c2.826-2.826 3.9-3.574 7.5-4.75l2.344-.797C650 617 650 617 653 618"/><path fill="#8e1a07" d="M918 617c10.558 3.075 10.558 3.075 15 5-3.402 2.094-6.053 2.18-10 2l-.812-1.812c-1.179-2.171-2.419-3.496-4.188-5.188"/><path fill="#de5f21" d="M981 473h3v3l4 1c-3.175 1.927-4.902 2.181-8.5 1.313l-2.281-.512C975 477 975 477 971 474l10 1z"/><path fill="#ee7a2d" d="M786 250c6.182.538 11.327 2.546 17 5v1h-11v-4l-6-1z"/><path fill="#f9882f" d="m674 610-3 2 2 4h-7l1-3-5 1c1.28-2.56 2.242-2.699 4.875-3.687l2.117-.825C671 609 671 609 674 610"/><path fill="#f27c2e" d="M887 290c5.07.654 9.42 2.855 14 5-2.728 1.364-4.61.878-7.625.563l-3.04-.31L888 295v-3z"/><path fill="#d74f1b" d="m651 290-2 1v4c-3.51 0-6.565-.375-10-1 3.847-3.134 7.045-5.652 12-4"/><path fill="#e46122" d="M818 452c5.76.606 10.72 2.757 16 5-3.133 1.044-3.99.934-7 0l-1 3-2-1v-2l-4-1 3-1-5-2z"/><path fill="#7e1907" d="m914 352-1 2h-6v4l-3 1-2-2-2-1q1.904-.972 3.813-1.937l2.144-1.09c4.514-2.15 4.514-2.15 8.043-.973"/><path fill="#f87e2d" d="m896 296 2.875.563c3.024.724 3.024.724 5.125-.563 2.625.938 2.625.938 5 2-3.088 1.765-4.233 2-8 2l-1 2c-2.062.625-2.062.625-4 1 1-3 1-3 3-5h-3z"/><path fill="#e8601f" d="m746 583-4 1v2h-3l-1 2-3-1c-2.638.394-2.638.394-5 1 1.45-2.9 3.313-3.087 6.313-4.187l2.925-1.106c2.797-.716 4.1-.7 6.762.293"/><path fill="#610d03" d="m874 368-9 3v3h-8c1.566-3.132 4.178-3.456 7.375-4.687l3.523-1.387C871 367 871 367 874 368"/><path fill="#7b1806" d="m899 358 1 3c-3 2-3 2-5 1.75-2-.75-2-.75-5-2.75 5.625-3.125 5.625-3.125 9-2"/><path fill="#e5722b" d="M961 320c3.95.628 7.199 1.865 10.813 3.563l2.957 1.378L977 326c-2.76 1.38-3.97.597-6.875-.312l-2.617-.801A47 47 0 0 1 961 322z"/><path fill="#ac310d" d="m596 631 5 4c-2.346 2.771-4.148 3.52-7.687 4.188l-2.45.48L589 640c2-2 2-2 5-3v-4h2z"/><path fill="#ad3912" d="M897 439h2v7l4 2c-4.565-.543-7.973-1.795-12-4 3-1 3-1 5-1z"/><path fill="#93290d" d="M857 430c7.429-.286 7.429-.286 11 2l-1 1 5 2c-3.985 1.328-5.4.232-9.187-1.437l-3.293-1.434L857 431z"/><path fill="#d64c19" d="M947 501q2.19.425 4.375.875l2.46.492C956 503 956 503 958 505h-4l2 2-5 1-.875-2.375c-.974-2.722-.974-2.722-3.125-4.625"/><path fill="#ee6c24" d="m729 589 2 3-1.793-.035c-4.21-.048-8.1-.025-12.207 1.035 1.28-2.56 2.242-2.699 4.875-3.687l2.117-.825C726 588 726 588 729 589"/><path fill="#550b03" d="m825 387-3 1v3c-3.473 1.158-6.36 1.069-10 1 2.165-2.416 4.022-3.636 7.063-4.75l2.097-.797C823 386 823 386 825 387"/><path fill="#ec762b" d="M914 301c3.662.627 6.882 1.645 10.313 3.063l2.675 1.097L929 306c-3.004 1.001-5.877 1.514-9 2v-3h-2v-2z"/><path fill="#e25d20" d="M683 277h-2l-1 4-7 2c0-3 0-3 2-5 4.469-2.177 4.469-2.177 8-1"/><path fill="#e05e21" d="m702 269-4 3 2 2-4 2-1-3h-5c3.4-3.4 7.328-5.557 12-4"/><path fill="#fb9e3b" d="M580 646h-2l-1 3-12 2c1.457-2.913 3.362-3.092 6.375-4.187l2.96-1.106C577 645 577 645 580 646"/><path fill="#741505" d="m679 601 1 2h5c-1.28 2.56-2.242 2.699-4.875 3.688l-2.117.824C676 608 676 608 673 607l4-1v-3h2z"/><path fill="#971d07" d="M805 574q2.44.676 4.875 1.375l2.742.773C815 577 815 577 817 579h-6v-2h-2l-1 2-3-1z"/><path fill="#fa6e25" d="M718 720h2v6l2 1c-3.344-.557-6.033-1.352-9-3l3-2z"/><path fill="#c12d0a" d="m653 388 2.336.438 3.039.562 3.023.563c2.491.492 2.491.492 4.602.437v3l2 1c-5.54-.568-10.037-2.629-15-5z"/><path fill="#c0300b" d="m640 383 2.813.563c3.2.678 3.2.678 6.187-.563l3 5c-4.565-.543-7.973-1.795-12-4z"/><path fill="#f88f31" d="M841 379c-4.642 2.533-8.652 4.465-14 5l4-2v-2q1.935-.543 3.875-1.062l2.18-.598C839 378 839 378 841 379"/><path fill="#ec7028" d="M537 501c3.558.61 6.683 1.578 10 3l-3 1-1 3c-1.5-1.375-1.5-1.375-3-3v-2l-3-1z"/><path fill="#ac2509" d="M585 362c1.626.06 3.251.149 4.875.25l2.742.14c2.383.61 2.383.61 3.703 2.657L597 367c-4.565-.543-7.973-1.795-12-4z"/><path fill="#dd5b20" d="M734 733c6.251.43 12.042 1.014 18 3v1c-6.717.32-11.757-.52-18-3z"/><path fill="#fd832e" d="M644 690v6c-5.75-.75-5.75-.75-8-3 6.875-3 6.875-3 8-3"/><path fill="#971c06" d="M791 569c4.847.591 8.607 1.98 13 4-3 1-3 1-4.875.5-2.638-.62-4.523-.15-7.125.5l1-3z"/><path fill="#a73312" d="m981 653 1.875.563c2.167.674 2.167.674 4.125-.563-1.152 2.468-2.048 4.048-4 6-2.125-.375-2.125-.375-4-1z"/><path fill="#f37828" d="m716 594-2 2v2l-2.187-.562c-2.941-.458-4.954-.173-7.813.562 1.28-2.56 2.242-2.699 4.875-3.687l2.117-.825C713 593 713 593 716 594"/><path fill="#de5f21" d="M805 447c4.609.72 8.672 2.313 13 4-3.196 1.065-5.657 1.074-9 1v-3z"/><path fill="#db551d" d="m673 281-4 1-1 4-7-1c3.4-3.4 7.328-5.557 12-4"/><path fill="#c54b1a" d="M787 737c-3.062 1.784-5.22 2.229-8.75 2.125l-2.422-.055L774 739c3.84-4.174 7.924-2.9 13-2"/><path fill="#c7340c" d="m690 402 10 1v2l2 2c-4.565-.543-7.973-1.795-12-4z"/><path fill="#fe8b34" d="m808 259 4 1v2h2v2l-6 1z"/><path fill="#e56826" d="m739 254-1.937.313L735 255l-1 3h-7c3.4-3.4 7.328-5.557 12-4"/><path fill="#fa6f26" d="M736 727c2 3.75 2 3.75 2 6l5 1c-3.41 1.136-4.003.867-7.187-.437l-2.168-.872L732 732l4-1z"/><path fill="#f27c2e" d="m570 664 4 2v2l2 2c-4.75-.875-4.75-.875-7-2z"/><path fill="#a6280a" d="M783 566c5.75.75 5.75.75 8 3-6.75 1.125-6.75 1.125-9 0z"/><path fill="#590b03" d="m848 378-3 1v2l-8 1c3.156-3.654 6.266-5.578 11-4"/><path fill="#b82809" d="m627 378 10 1v2l2 2c-4.565-.543-7.973-1.795-12-4z"/><path fill="#751104" d="M949 338c-2.604 2.14-4.62 3.577-8 4a93 93 0 0 1-4-1c1.432-.7 2.87-1.384 4.313-2.062l2.425-1.16C946 337 946 337 949 338"/><path fill="#ed782d" d="M825 265c4.389.665 7.981 2.188 12 4v1c-5.75.125-5.75.125-8-1v-2z"/><path fill="#dd5d21" d="m539 458 1 3h2l2 8c-3.123-2.518-3.945-3.726-4.75-7.75z"/><path fill="#bd4b1a" d="M979 328c2.915 1.074 4.778 1.778 7 4-.375 2.125-.375 2.125-1 4-4.875-4.625-4.875-4.625-6-8"/><path fill="#c83c14" d="m576 322-4 1v3h-8c3.4-3.4 7.328-5.557 12-4"/><path fill="#e36221" d="M693 714.125c2.546 1.114 3.513 2.57 5 4.875-3.558-.61-6.683-1.578-10-3 3-2 3-2 5-1.875"/><path fill="#8b1604" d="M907 613c4.22.48 6.797 1.166 10 4l-6 1v-3z"/><path fill="#721204" d="m742 579 1 2-9 3-2-2z"/><path fill="#530a02" d="m836 383-4 4c-3.125-.375-3.125-.375-6-1 5.622-4.46 5.622-4.46 10-3"/><path fill="#e56b26" d="M656 702c5.75-.125 5.75-.125 8 1v2l2 1c-3.558-.61-6.683-1.578-10-3z"/><path fill="#b7370e" d="M553 649h3v4h-9v-1l2.438-.375L552 651z"/><path fill="#851e08" d="M699 593h2v2l2 1-3 3-4-2c1.375-2 1.375-2 3-4"/><path fill="#530903" d="M811 393h-2l-1 3h-6c2.921-3.2 4.625-4.458 9-3"/><path fill="#fb8a32" d="m596 368 6 1v3h-5z"/><path fill="#6a1003" d="m889 362-4 1-1 4-4-3c5.625-3.125 5.625-3.125 9-2"/><path fill="#e87028" d="m544 651 8 2-4 2 1 2c-1.937-.75-1.937-.75-4-2z"/><path fill="#f67c2c" d="m741 423 6 1-2 2 1 2-5-1z"/><path fill="#671104" d="m853 374 3 1-1 3c-2.062.688-2.062.688-4 1v-4z"/><path fill="#701104" d="m914 352-1 2c-2.649.594-5.292.742-8 1 2.921-3.2 4.625-4.458 9-3"/><path fill="#7e1605" d="m959 334-1 2c-2.649.594-5.292.742-8 1 2.921-3.2 4.625-4.458 9-3"/><path fill="#f67832" d="m562 482 3 2h-3z"/><path fill="#897a74" d="m948 1013 2 1-2 1z"/><path fill="#806c66" d="m948 925 2 1-2 1z"/><path fill="#80665d" d="m948 885 2 1-2 1z"/><path fill="#7d6e68" d="m1044 862 2 1-2 1z"/><path fill="#8b5b47" d="m948 805 2 1-2 1z"/><path fill="#c5481c" d="M908 691h2l-1 2z"/><path fill="#b93f19" d="m946 676 1 2-2-1z"/><path fill="#c94b1b" d="m751 576 3 1Z"/><path fill="#c04819" d="m677 552 3 1Z"/><path fill="#e87031" d="M989 483h2l-1 2z"/><path fill="#f57632" d="m547 476 3 1Z"/><path fill="#e66227" d="m949 468 2 1-2 1z"/><path fill="#e56026" d="m665 280 3 1Z"/><path fill="#8c8683" d="m1042 1021 2 1Z"/><path fill="#8b7a74" d="m948 1021 2 1Z"/><path fill="#8e8988" d="m1090 1003 2 1Z"/><path fill="#887772" d="m948 997 2 1Z"/><path fill="#8b8685" d="m1090 979 2 1Z"/><path fill="#857e7b" d="m1042 957 2 1Z"/><path fill="#888282" d="m1090 955 2 1Z"/><path fill="#878181" d="m1090 947 2 1Z"/><path fill="#857f7e" d="m1090 931 2 1Z"/><path fill="#847d7b" d="m1090 915 2 1Z"/><path fill="#817a79" d="m1090 899 2 1Z"/><path fill="#807976" d="m1090 891 2 1Z"/><path fill="#7f7775" d="m1090 883 2 1Z"/><path fill="#7c6b65" d="m998 883 2 1Z"/><path fill="#7f7673" d="m1090 875 2 1Z"/><path fill="#acabab" d="m85 869 2 1Z"/><path fill="#816053" d="m948 853 2 1Z"/><path fill="#7d6b64" d="m1042 845 2 1Z"/><path fill="#7e716e" d="m1090 843 2 1Z"/><path fill="#7e6961" d="m1042 829 2 1Z"/><path fill="#7e6f6b" d="m1090 827 2 1Z"/><path fill="#816154" d="m997 821 2 1Z"/><path fill="#7f6d68" d="m1090 811 2 1Z"/><path fill="#7f6b66" d="m1090 795 2 1Z"/><path fill="#826961" d="m1090 771 2 1Z"/><path fill="#a8a8a8" d="m84 770 2 1Z"/><path fill="#83685e" d="m1090 755 2 1Z"/><path fill="#84665c" d="m1090 747 2 1Z"/><path fill="#85655b" d="m1090 739 2 1Z"/><path fill="#ea6a2b" d="m746 739 2 1Z"/><path fill="#866559" d="m1090 731 2 1Z"/><path fill="#886356" d="m1090 715 2 1Z"/><path fill="#f37a31" d="m653 703 2 1Z"/><path fill="#8c6254" d="m1090 699 2 1Z"/><path fill="#f57c33" d="m643 699 2 1Z"/><path fill="#8e6252" d="m1090 691 2 1Z"/><path fill="#c3451a" d="m918 687 2 1Z"/><path fill="#93614f" d="m1090 667 2 1Z"/><path fill="#94604e" d="m1090 659 2 1Z"/><path fill="#98604b" d="m1090 643 2 1Z"/><path fill="#a06149" d="m1090 619 2 1Z"/><path fill="#a26247" d="m1090 611 2 1Z"/><path fill="#e06025" d="m778 566 2 1Z"/><path fill="#ab6647" d="m1090 563 2 1Z"/><path fill="#ac6647" d="m1090 555 2 1Z"/><path fill="#c94e19" d="m664 547 2 1Z"/><path fill="#ad6849" d="m1090 531 2 1Z"/><path fill="#af6b49" d="m1090 499 2 1Z"/><path fill="#ea6023" d="m948 499 2 1Z"/><path fill="#ec7130" d="m987 482 2 1Z"/><path fill="#f47732" d="m544 473 2 1Z"/><path fill="#ae6c4a" d="m1090 467 2 1Z"/><path fill="#e46126" d="m947 467 2 1Z"/><path fill="#ad6b4b" d="m1090 443 2 1Z"/><path fill="#a5674a" d="m1090 387 2 1Z"/><path fill="#a4a3a3" d="m85 365 2 1Z"/><path fill="#9d664b" d="m1090 355 2 1Z"/><path fill="#9f654b" d="m1090 347 2 1Z"/><path fill="#a5a3a3" d="m85 341 2 1Z"/><path fill="#9b644c" d="m1090 323 2 1Z"/><path fill="#c44b20" d="m562 322 2 1Z"/><path fill="#e06c2e" d="m967 320 2 1Z"/><path fill="#9a654c" d="m1090 315 2 1Z"/><path fill="#ee7a33" d="m947 312 2 1Z"/><path fill="#986750" d="m1090 291 2 1Z"/><path fill="#eb6e2c" d="m704 264 2 1Z"/><path fill="#926958" d="m1090 251 2 1Z"/><path fill="#f37f38" d="m787 248 2 1Z"/><path fill="#906a5a" d="m1090 243 2 1Z"/><path fill="#8f6a5a" d="m1090 235 2 1Z"/><path fill="#8c6c5e" d="m1090 219 2 1Z"/><path fill="#8b6d5f" d="m1090 211 2 1Z"/><path fill="#886e63" d="m1090 187 2 1Z"/><path fill="#886f65" d="m1090 179 2 1Z"/><path fill="#887068" d="m1090 163 2 1Z"/><path fill="#86726b" d="m1090 147 2 1Z"/><path fill="#867570" d="m1090 123 2 1Z"/><path fill="#887b77" d="m1090 83 2 1Z"/><path fill="#897e79" d="m1090 67 2 1Z"/><path fill="#8a7e7a" d="m1090 59 2 1Z"/><path fill="#8a7f7c" d="m1090 51 2 1Z"/><path fill="#8a7b74" d="m1042 45 2 1Z"/><path fill="#8b807e" d="m1090 43 2 1Z"/><path fill="#8c7266" d="m948 37 2 1Z"/><path fill="#8c817f" d="m1090 35 2 1Z"/><path fill="#8d8381" d="m1090 27 2 1Z"/><path fill="#8c7367" d="m948 21 2 1Z"/></svg>